<svg width="24" height="24" viewBox="0 0 24 24" fill="none" xmlns="http://www.w3.org/2000/svg">
<path fill-rule="evenodd" clip-rule="evenodd" d="M16.0903 4.28028L7.18272 0L10.1087 3.68924L5.52892 4.32531L7.18272 4.70696L4.00234 8.01455H6.67386L5.92255 8.56096C5.4984 8.86943 5.16544 9.28674 4.95884 9.76879C4.67099 10.4404 4.64621 11.1958 4.88941 11.8849L4.96606 12.102C5.1682 12.6748 5.51583 13.1851 5.97481 13.5829L9.09095 16.2835L8.51418 13.592C8.39089 13.0166 8.37472 12.4234 8.4665 11.8422L8.48718 11.7112C8.63154 10.7969 9.06186 9.95186 9.71638 9.29735C10.5377 8.47598 11.6517 8.01455 12.8133 8.01455H14.6884L13.6707 10.3044L15.9172 10.072C16.8146 9.97919 17.6965 10.3555 18.2504 11.0677L18.7563 10.8892C19.8134 10.5161 20.6692 9.72237 21.1207 8.69626L21.5764 7.66048C21.7241 7.32488 21.6962 6.93797 21.5018 6.62706C21.2994 6.30312 20.9443 6.10632 20.5623 6.10632H18.1664C17.8302 6.10632 17.525 5.90983 17.3859 5.60379C17.1226 5.02439 16.664 4.55594 16.0903 4.28028ZM16.3419 6.10633C16.3419 6.59814 15.9433 6.99683 15.4514 6.99683C14.9596 6.99683 14.5609 6.59814 14.5609 6.10633C14.5609 5.61451 14.9596 5.21582 15.4514 5.21582C15.9433 5.21582 16.3419 5.61451 16.3419 6.10633ZM10.9347 10.1316L12.2714 9.15942L12.0708 10.7645C12.0352 11.0487 12.055 11.3372 12.1291 11.6139C12.3548 12.4576 13.0542 13.0905 13.9161 13.2313L14.6885 13.3575L17.1459 13.8343C17.7109 13.9439 18.2525 14.1515 18.746 14.4476C19.8691 15.1214 20.6824 16.2294 21 17.5C20.3379 16.8379 19.5704 16.2906 18.7287 15.8804L18.2505 15.6474L19.0332 17.4084C19.1881 17.7571 19.2682 18.1344 19.2682 18.516C19.2682 19.2069 19.0061 19.8719 18.5347 20.377L15.7062 23.4075L16.1223 22.4077C16.3716 21.8085 16.5 21.1659 16.5 20.5168C16.5 20.1739 16.453 19.8326 16.3602 19.5024L16.3506 19.468C15.9534 18.054 14.815 16.9703 13.3832 16.643L12.1709 16.3659C11.5704 16.2286 11.0175 15.9332 10.5696 15.5102C9.88627 14.8648 9.49551 13.9569 9.48773 13.017C9.47835 11.8825 10.0171 10.7989 10.9347 10.1316ZM10.539 21H10.753C11.2401 21 11.7163 20.8558 12.1215 20.5857C12.6439 20.2374 12.8785 19.5896 12.7004 18.9876L12.2991 17.6314L13.465 18.1229C14.3271 18.4863 14.9669 19.2418 15.1874 20.151C15.3577 20.853 15.2633 21.5968 14.9208 22.2329C14.6856 22.6696 14.3434 23.0395 13.9261 23.3077L13.7597 23.4147C13.1228 23.8241 12.3755 24.028 11.619 23.9986L11.238 23.9839C10.1136 23.9403 9.03844 23.5114 8.19273 22.7692L6.16606 20.9905L4.25784 19.2095L4.51227 22.0083L3.37057 20.2621C2.7044 19.2433 2.34961 18.0524 2.34961 16.835V16.6701C2.34961 15.5868 2.65852 14.526 3.24011 13.6121C3.74383 14.7874 4.47877 15.8494 5.40123 16.735L7.18378 18.4462L4.89391 17.8102L8 20L8.63553 20.4237C9.19921 20.7995 9.86151 21 10.539 21Z" fill="white"/>
</svg>
