<svg width="26" height="26" viewBox="0 0 26 26" fill="none" xmlns="http://www.w3.org/2000/svg">
<path d="M7.00126 11.8291C6.32828 13.0754 6 14.1003 6 14.872C6 18.3662 9.21061 21.1965 13.2222 21.3333C17.2338 21.1965 20.4444 18.3604 20.4444 14.872C20.4444 14.1003 20.1162 13.0754 19.4596 11.8291C18.811 10.645 18.0694 9.50265 17.2404 8.41064C16.3869 7.26629 15.5333 6.2355 14.9654 5.57452C14.3088 4.81453 13.8657 4.33117 13.8066 4.26711C13.7437 4.18483 13.6591 4.11747 13.5601 4.07091C13.461 4.02434 13.3507 4 13.2386 4C13.1266 4 13.0162 4.02434 12.9172 4.07091C12.8182 4.11747 12.7336 4.18483 12.6707 4.26711C12.6116 4.33117 12.1619 4.81453 11.5119 5.57452C10.9439 6.2355 10.0904 7.26629 9.23687 8.41064C8.4022 9.50222 7.65515 10.6445 7.00126 11.8291ZM13.6687 17.4577C14.3418 17.2154 14.9192 16.8019 15.3281 16.2693C15.7369 15.7366 15.9591 15.1087 15.9667 14.4643C15.9675 14.3645 15.9907 14.2659 16.0348 14.1741C16.079 14.0823 16.1432 13.9992 16.2238 13.9296C16.3044 13.86 16.3998 13.8053 16.5044 13.7686C16.6091 13.7319 16.7209 13.7141 16.8333 13.716C16.9448 13.716 17.0552 13.7355 17.1582 13.7735C17.2612 13.8114 17.3547 13.867 17.4334 13.9371C17.5121 14.0071 17.5744 14.0903 17.6168 14.1818C17.6591 14.2733 17.6807 14.3713 17.6803 14.4702C17.6671 15.4113 17.3407 16.328 16.742 17.1051C16.1433 17.8822 15.2991 18.485 14.3154 18.8379C14.2113 18.876 14.0998 18.8958 13.9871 18.8961C13.7876 18.8997 13.5931 18.841 13.4375 18.7302C13.2819 18.6194 13.1752 18.4636 13.1361 18.29C13.097 18.1165 13.1279 17.9363 13.2234 17.7809C13.319 17.6255 13.4731 17.505 13.6588 17.4402L13.6687 17.4577Z" fill="url(#paint0_linear_130_34)"/>
<defs>
<linearGradient id="paint0_linear_130_34" x1="13.2222" y1="4" x2="13.2222" y2="21.3333" gradientUnits="userSpaceOnUse">
<stop stop-color="#0175E4"/>
<stop offset="1" stop-color="#01B0EE"/>
</linearGradient>
</defs>
</svg>
