<svg width="26" height="26" viewBox="0 0 26 26" fill="none" xmlns="http://www.w3.org/2000/svg">
<path fill-rule="evenodd" clip-rule="evenodd" d="M18.0088 5C16.6285 6.03523 13.2985 8.20922 11.021 8.62331C8.74347 9.03741 9.55441 7.58808 10.2446 6.81166C7.57021 8.62331 3.41203 13.5407 8.1741 18.7168L8.69171 21.5637H10.7622V20.0109C11.5386 20.2697 13.7126 20.632 16.1971 20.0109C19.3028 19.2344 20.0793 15.8699 20.0793 15.6111C20.0793 15.5752 20.0843 15.4842 20.0915 15.3529C20.1362 14.5391 20.2661 12.1747 19.8205 11.729L18.7852 12.5054C18.8715 10.6075 18.837 6.44933 18.0088 5ZM9.01716 9.65835C7.72312 10.8661 5.80794 14.0581 8.49954 17.1638C8.93089 15.0933 11.0359 10.4348 16.005 8.36431C14.6247 8.70939 11.6052 9.60659 10.57 10.4348C9.53477 11.263 9.10343 10.2622 9.01716 9.65835Z" fill="url(#paint0_linear_130_36)"/>
<defs>
<linearGradient id="paint0_linear_130_36" x1="13.072" y1="5" x2="13.072" y2="21.5637" gradientUnits="userSpaceOnUse">
<stop stop-color="#639D03"/>
<stop offset="1" stop-color="#9BCA0C"/>
</linearGradient>
</defs>
</svg>
