<svg width="26" height="26" viewBox="0 0 26 26" fill="none" xmlns="http://www.w3.org/2000/svg">
<path fill-rule="evenodd" clip-rule="evenodd" d="M14.923 6.86988L12.6477 3C12.6477 3 10.5095 6.92524 10.5888 6.89654C11.2786 6.64711 12.0218 6.50839 12.7977 6.50839C13.5429 6.50839 14.256 6.63959 14.923 6.86988ZM8.79097 9.77268C8.0772 10.5695 7.68939 11.6075 7.72424 12.6606C7.72641 12.6934 7.72765 12.7225 7.7289 12.7516L7.7289 12.7516C7.73156 12.814 7.73423 12.8766 7.74611 12.9763C7.74937 13.0039 7.75247 13.0319 7.75559 13.06L7.75559 13.06L7.75559 13.06L7.75559 13.0601L7.75559 13.0601L7.75559 13.0601L7.75559 13.0601L7.7556 13.0601L7.7556 13.0602C7.76682 13.1616 7.77818 13.2643 7.7977 13.3514C7.83939 13.5838 7.89782 13.8131 7.97674 14.0334C8.12947 14.4763 8.36421 14.8791 8.63619 15.2177C9.18425 15.9031 9.86863 16.3002 10.4703 16.5414C11.0816 16.7768 11.6351 16.8673 12.0988 16.8882C12.5631 16.9066 12.9407 16.8656 13.2171 16.7949C13.2224 16.7937 13.2269 16.7923 13.2315 16.7909L13.2315 16.7908L13.2315 16.7908C13.2358 16.7895 13.24 16.7882 13.2448 16.7871C14.7465 16.7351 15.9489 15.5044 15.9489 13.99C15.9489 12.4426 14.6945 11.1883 13.1471 11.1883C11.5996 11.1883 10.3453 12.4426 10.3453 13.99C10.3453 14.0984 10.3528 14.2046 10.3648 14.3099C10.2882 14.2289 10.2161 14.1428 10.1509 14.0512C9.88538 13.6648 9.72034 13.2069 9.72103 12.5909C9.70053 12.1115 9.91989 11.5364 10.2978 11.0738C10.6829 10.6112 11.2446 10.2421 11.9375 10.0484C12.1111 10.0023 12.2884 9.95718 12.4746 9.93122C12.5348 9.91999 12.5893 9.91354 12.6435 9.90713L12.6436 9.90712C12.6751 9.90338 12.7066 9.89965 12.7391 9.895L13.0411 9.87279C13.3955 9.85502 13.7597 9.8885 14.1113 9.98315C14.8179 10.1649 15.4681 10.5831 15.9335 11.1585C16.403 11.7305 16.6811 12.4661 16.775 13.2028C16.8717 13.9702 16.8024 14.7113 16.5523 15.3496C16.2936 15.9817 15.86 16.5031 15.353 16.868C14.8531 17.2435 14.3067 17.4885 13.8082 17.6573C13.3083 17.8285 12.8501 17.9221 12.4712 17.985C11.7106 18.108 11.2661 18.1022 11.2661 18.1022L11.26 18.2166C11.26 18.2166 11.7082 18.2785 12.4986 18.244C12.8929 18.2221 13.3743 18.178 13.9193 18.0561C14.4622 17.9344 15.0786 17.7427 15.6916 17.3768C16.3052 17.0197 16.8994 16.4484 17.2954 15.694C17.4878 15.3158 17.6251 14.9003 17.7167 14.4684L17.7284 14.4V14.4V14.3999V14.3999C17.7615 14.2057 17.7952 14.0087 17.8056 13.81L17.8192 13.6426L17.82 13.6303L17.8216 13.6119C17.8232 13.5956 17.8248 13.5791 17.825 13.5479L17.8278 13.4704C17.8319 13.3689 17.8353 13.2643 17.8312 13.1396C17.8202 12.2147 17.5606 11.2409 17.0012 10.3891C16.446 9.53999 15.5925 8.85082 14.603 8.48624C14.1099 8.29969 13.5841 8.19377 13.0524 8.16711L12.6902 8.15891C12.6593 8.15971 12.6279 8.16034 12.5964 8.16098L12.5964 8.16098C12.4933 8.16305 12.389 8.16515 12.2942 8.17326C12.0407 8.18556 11.7848 8.22212 11.5302 8.2662C10.5148 8.45208 9.49313 8.96084 8.79097 9.77268ZM18.5526 9.97353C17.8422 8.63687 16.6822 7.57732 15.2718 6.99783L19.6405 5.69602C19.6405 5.69602 18.6527 9.7183 18.5526 9.97353ZM19.3163 13.0269C19.3163 13.8144 19.1693 14.5661 18.9134 15.2652L22.7922 12.7248L18.7938 10.468C19.1297 11.2539 19.3163 12.1183 19.3163 13.0269ZM15.3367 19.0319C16.9057 18.3677 18.1593 17.1059 18.8153 15.5324L19.9538 20.0269L15.3367 19.0319ZM10.6737 19.184L12.989 23.2159L14.9243 19.1833C14.257 19.4136 13.5435 19.5452 12.798 19.5452C12.0531 19.5452 11.3404 19.414 10.6737 19.184ZM5.99725 20.0268L6.95122 15.8945C7.64347 17.3036 8.82364 18.4288 10.2778 19.039L5.99725 20.0268ZM6.27946 13.0271C6.27946 12.2874 6.40861 11.5791 6.63549 10.9165L3 13.0333L6.79916 15.5798C6.46499 14.7956 6.27946 13.9329 6.27946 13.0271ZM9.91202 7.1807C8.56102 7.84971 7.47857 8.97486 6.85739 10.3532L5.31026 6.0388C5.31026 6.0388 9.51909 7.05222 9.91202 7.1807Z" fill="url(#paint0_linear_130_39)"/>
<defs>
<linearGradient id="paint0_linear_130_39" x1="12.8961" y1="3" x2="12.8961" y2="23.2159" gradientUnits="userSpaceOnUse">
<stop stop-color="#FFDC17"/>
<stop offset="1" stop-color="#FFE761"/>
</linearGradient>
</defs>
</svg>
