<svg width="26" height="26" viewBox="0 0 26 26" fill="none" xmlns="http://www.w3.org/2000/svg">
<path fill-rule="evenodd" clip-rule="evenodd" d="M10.8761 10.8762C10.8761 14.1216 13.5069 16.7525 16.7523 16.7525C18.7677 16.7525 20.5461 15.7378 21.6047 14.1915C21.1711 18.3818 17.6294 21.6493 13.3246 21.6493C8.727 21.6493 4.99992 17.9222 4.99992 13.3247C4.99992 8.72708 8.727 5 13.3246 5C13.966 5 14.5905 5.07254 15.1903 5.20987C12.7031 5.89396 10.8761 8.17173 10.8761 10.8762ZM17.2415 6.46933L18.7106 9.1626L21.6487 10.6317L18.7106 12.3456L17.2415 14.5491L15.7724 12.3456L12.8343 10.6317L15.7724 9.1626L17.2415 6.46933Z" fill="url(#paint0_linear_130_38)"/>
<defs>
<linearGradient id="paint0_linear_130_38" x1="13.3243" y1="5" x2="13.3243" y2="21.6493" gradientUnits="userSpaceOnUse">
<stop stop-color="#C039FF"/>
<stop offset="1" stop-color="#9F3FFF"/>
</linearGradient>
</defs>
</svg>
