<svg width="63" height="10" viewBox="0 0 63 10" fill="none" xmlns="http://www.w3.org/2000/svg">
<g opacity="0.5">
<path d="M10.1191 9.44838C10.2072 9.66903 10.1114 9.80693 9.89693 9.80693H7.86286C7.70198 9.80693 7.59089 9.73207 7.5296 9.57053L6.88605 7.93144H3.12821L2.45785 9.57053C2.39656 9.72419 2.28164 9.80693 2.11692 9.80693H0.262893C0.0483777 9.80693 -0.0588804 9.66903 0.0330547 9.44838L4.02457 0.330969C4.08203 0.181245 4.20078 0.102443 4.3655 0.102443H5.90924C6.07013 0.102443 6.18888 0.181245 6.25017 0.330969L10.1191 9.44838ZM3.81006 6.26083H6.23101L5.04352 3.24271L3.81006 6.26083Z" fill="#A5A6AB"/>
<path d="M19.4887 9.23168C19.6534 9.51931 19.4849 9.80693 19.1708 9.80693H17.3397C17.2478 9.80693 17.1558 9.74783 17.1137 9.66509L15.3976 6.63909H13.7926V9.53507C13.7926 9.68479 13.67 9.80693 13.5282 9.80693H11.6589C11.5133 9.80693 11.3946 9.68479 11.3946 9.53507V0.464933C11.3946 0.315208 11.5133 0.193065 11.6589 0.193065H13.5282H15.6542C18.1441 0.193065 19.4657 1.58392 19.4657 3.41608C19.4657 4.65327 18.8643 5.68952 17.7075 6.22931L19.4887 9.23168ZM13.7926 2.08038V4.75571H15.1831C16.5123 4.75571 16.9911 4.23562 16.9911 3.41608C16.9911 2.59653 16.5123 2.08038 15.1831 2.08038H13.7926Z" fill="#A5A6AB"/>
<path d="M30.0045 7.1316C30.1692 7.2104 30.2343 7.36013 30.1386 7.55319C29.2728 9.28684 27.6946 10 26.0206 10C23.3047 10 20.9297 8.10875 20.9297 5C20.9297 1.89125 23.3047 0 26.0206 0C27.6946 0 29.2728 0.71316 30.1386 2.44681C30.2343 2.63987 30.1692 2.7896 30.0045 2.8684L28.591 3.55792C28.4263 3.63672 28.2884 3.58944 28.1849 3.41214C27.687 2.47045 26.9093 2.02522 26.0206 2.02522C24.4692 2.02522 23.435 3.24665 23.435 5C23.435 6.75335 24.4692 7.97478 26.0206 7.97478C26.9093 7.97478 27.687 7.52955 28.1849 6.58786C28.2884 6.41056 28.4263 6.36328 28.591 6.44208L30.0045 7.1316Z" fill="#A5A6AB"/>
<path d="M41.041 9.44838C41.1291 9.66903 41.0333 9.80693 40.8188 9.80693H38.7848C38.6239 9.80693 38.5128 9.73207 38.4515 9.57053L37.8079 7.93144H34.0501L33.3797 9.57053C33.3185 9.72419 33.2035 9.80693 33.0388 9.80693H31.1848C30.9703 9.80693 30.863 9.66903 30.9549 9.44838L34.9465 0.330969C35.0039 0.181245 35.1227 0.102443 35.2874 0.102443H36.8311C36.992 0.102443 37.1108 0.181245 37.1721 0.330969L41.041 9.44838ZM34.7319 6.26083H37.1529L35.9654 3.24271L34.7319 6.26083Z" fill="#A5A6AB"/>
<path d="M51.3491 0.193065C51.5368 0.193065 51.6479 0.307329 51.6479 0.496454V9.59023C51.6479 9.77935 51.5368 9.89756 51.3491 9.89756H50.8626C50.7247 9.89756 50.6098 9.87392 50.4949 9.76359L44.7106 4.42868V9.50355C44.7106 9.69267 44.5995 9.80693 44.4157 9.80693H42.6114C42.4276 9.80693 42.3165 9.69267 42.3165 9.50355V0.409771C42.3165 0.220646 42.4276 0.102443 42.6114 0.102443H43.0979C43.2397 0.102443 43.3507 0.126084 43.4695 0.236406L49.2499 5.58314V0.496454C49.2499 0.307329 49.361 0.193065 49.5487 0.193065H51.3491Z" fill="#A5A6AB"/>
<path d="M62.9674 9.44838C63.0555 9.66903 62.9597 9.80693 62.7452 9.80693H60.7111C60.5503 9.80693 60.4392 9.73207 60.3779 9.57053L59.7343 7.93144H55.9765L55.3061 9.57053C55.2448 9.72419 55.1299 9.80693 54.9652 9.80693H53.1112C52.8967 9.80693 52.7894 9.66903 52.8813 9.44838L56.8728 0.330969C56.9303 0.181245 57.0491 0.102443 57.2138 0.102443H58.7575C58.9184 0.102443 59.0372 0.181245 59.0984 0.330969L62.9674 9.44838ZM56.6583 6.26083H59.0793L57.8918 3.24271L56.6583 6.26083Z" fill="#A5A6AB"/>
</g>
</svg>
