<svg width="78" height="86" viewBox="0 0 78 86" fill="none" xmlns="http://www.w3.org/2000/svg">
<g filter="url(#filter0_d_17031_3800)">
<mask id="path-1-outside-1_17031_3800" maskUnits="userSpaceOnUse" x="10" y="10" width="58" height="66" fill="black">
<rect fill="white" x="10" y="10" width="58" height="66"/>
<path d="M33.2716 52.2076C33.2716 53.8541 33.2984 55.5005 33.2573 57.1469C33.2412 57.7897 33.4251 58.1973 34 58.5169C35.5837 59.3967 37.1352 60.3375 38.7153 61.2262C38.8778 61.3178 39.1848 61.2998 39.3545 61.2065C40.9399 60.3249 42.5057 59.4074 44.0876 58.5205C44.6071 58.2296 44.8267 57.8597 44.8196 57.2313C44.7874 54.0282 44.8606 50.8234 44.7714 47.6238C44.741 46.5735 45.1552 46.1067 45.9908 45.6417C48.7939 44.0814 51.5648 42.4565 54.3179 40.8083C54.6232 40.627 54.9071 40.1386 54.9196 39.7813C54.9821 38.0469 54.9874 36.3089 54.9178 34.5745C54.9017 34.1867 54.6 33.666 54.2715 33.4595C52.8128 32.5438 51.2809 31.7484 49.8133 30.8471C49.3027 30.5329 48.9331 30.5473 48.4368 30.8381C45.6194 32.4953 42.7824 34.1184 39.9597 35.7667C39.3955 36.0952 38.9045 36.2927 38.2404 35.8941C35.3605 34.1687 32.4557 32.481 29.533 30.8291C29.2223 30.6532 28.6563 30.6478 28.3421 30.8166C26.8013 31.6443 25.2909 32.5312 23.8108 33.4649C23.5287 33.6426 23.2876 34.1184 23.2751 34.4649C23.218 36.0503 23.3287 37.6429 23.2216 39.2211C23.1519 40.2607 23.5769 40.7832 24.4142 41.2518C27.087 42.7474 29.7151 44.3238 32.3842 45.8248C33.0288 46.1875 33.3216 46.5843 33.2894 47.3635C33.2234 48.974 33.2698 50.5917 33.2716 52.2076ZM28.8384 67.2589C28.8634 66.8173 28.8938 66.5318 28.8938 66.2445C28.8974 64.7184 28.8581 63.1922 28.9117 61.6697C28.9349 60.9874 28.7331 60.5834 28.1386 60.2423C25.2748 58.6084 22.4414 56.9189 19.5758 55.2887C18.9902 54.9547 18.7313 54.5902 18.7402 53.8864C18.7795 50.8072 18.7241 47.7244 18.7813 44.6452C18.8009 43.5966 18.6367 42.8695 17.5708 42.3775C16.2835 41.7814 15.0998 40.9627 13.8643 40.2517C13.65 40.1278 13.4054 40.056 13.1055 39.9303C13.1055 40.2409 13.1055 40.4474 13.1055 40.6557C13.1055 46.1588 13.1216 51.6618 13.0859 57.1649C13.0805 57.9441 13.3769 58.3301 14.0125 58.6928C17.394 60.6176 20.7524 62.5836 24.1196 64.5334C25.6515 65.4222 27.1852 66.3038 28.8384 67.2589ZM54.7553 22.0135C54.6375 21.9093 54.5661 21.8196 54.4732 21.7657C52.5182 20.6346 50.5578 19.507 48.6028 18.3777C45.6212 16.654 42.6325 14.943 39.6687 13.1888C39.092 12.8477 38.6706 13.02 38.1904 13.3019C34.1643 15.6575 30.1347 18.0096 26.1086 20.3634C25.2034 20.8931 24.3035 21.4299 23.3376 22.0009C25.1052 23.0458 26.7245 24.0351 28.385 24.9544C28.6724 25.1124 29.1991 25.1088 29.4865 24.9472C32.1807 23.4337 34.8856 21.9345 37.4994 20.288C38.6421 19.568 39.483 19.5914 40.615 20.297C43.2359 21.9345 45.9426 23.4337 48.6385 24.9419C48.9206 25.0999 49.4438 25.0909 49.7312 24.9329C51.4095 24.0064 53.0521 23.0117 54.7553 22.0135ZM49.2777 67.2141C50.5239 66.4779 51.6077 65.8226 52.7039 65.1906C56.5407 62.9732 60.3829 60.763 64.2233 58.5528C64.75 58.2494 65.0035 57.8651 65 57.1936C64.9678 51.6546 64.9821 46.1175 64.9785 40.5785C64.9785 40.3594 64.9321 40.1404 64.8982 39.8352C63.2592 40.7885 61.7327 41.7132 60.1687 42.566C59.5438 42.9072 59.2778 43.2932 59.2867 44.0329C59.3224 47.3563 59.3081 50.6797 59.2688 54.0013C59.2653 54.3568 59.0938 54.8757 58.8314 55.0355C56.0587 56.716 53.2734 58.3804 50.44 59.9532C49.5473 60.4488 49.1688 60.9551 49.2474 62.0234C49.367 63.677 49.2777 65.3486 49.2777 67.2141ZM24.4374 27.8595C22.6431 26.7876 20.897 25.7336 19.1348 24.7102C18.9759 24.6187 18.6634 24.651 18.4903 24.7497C16.8905 25.66 15.3105 26.6062 13.7143 27.5219C13.2483 27.7894 13.0716 28.1342 13.093 28.68C13.1358 29.7249 13.2376 30.7932 13.0787 31.8149C12.7448 33.973 13.4554 35.3447 15.5497 36.1168C16.6531 36.5243 17.6279 37.2856 18.7581 37.9463C18.7581 35.878 18.7724 33.9658 18.7491 32.0554C18.742 31.5024 18.8438 31.1416 19.3937 30.8381C21.0755 29.9063 22.7092 28.8883 24.4374 27.8595ZM33.2805 63.2712C33.2805 65.3971 33.2627 67.3685 33.3019 69.3399C33.3073 69.5966 33.5501 69.9414 33.7804 70.085C35.2445 70.9953 36.7424 71.8499 38.2154 72.7441C38.7546 73.0726 39.2188 73.0888 39.7829 72.7477C41.2809 71.8428 42.8199 71.0079 44.3268 70.1191C44.5303 69.9988 44.7803 69.7331 44.7839 69.5302C44.8178 67.4816 44.8053 65.433 44.8053 63.2443C43.0235 64.2641 41.3702 65.1906 39.7401 66.1565C39.2509 66.4474 38.876 66.4833 38.3582 66.1709C36.7353 65.196 35.0731 64.2875 33.2805 63.2712ZM59.2938 37.8925C61.1774 36.8224 62.8664 35.8941 64.5126 34.8959C64.7661 34.7414 64.9482 34.2692 64.9571 33.9389C65.0018 32.147 65.0053 30.3516 64.9589 28.5597C64.9518 28.2563 64.7036 27.8469 64.4447 27.6817C63.0396 26.7894 61.5756 25.9922 60.1776 25.0909C59.4616 24.6294 58.876 24.5684 58.1779 25.0999C57.6619 25.4931 57.0513 25.7606 56.4889 26.0927C55.5516 26.6457 54.6196 27.2041 53.5395 27.8469C54.9803 28.6674 56.2408 29.4323 57.5441 30.1146C58.7564 30.7484 59.5224 31.4917 59.3349 33.0663C59.151 34.5906 59.2938 36.1563 59.2938 37.8925ZM33.4269 27.8756C35.2177 28.9278 36.8603 29.9224 38.5403 30.8489C38.8117 30.9979 39.2741 30.9117 39.6062 30.8022C39.9615 30.6855 40.2614 30.4054 40.5953 30.2133C41.9111 29.4538 43.2323 28.7015 44.6428 27.8936C43.3216 27.0892 42.1147 26.3495 40.9024 25.6187C39.0634 24.5091 39.0616 24.5109 37.1602 25.6331C37.0067 25.7229 36.8478 25.8037 36.6942 25.8952C35.639 26.5326 34.5839 27.1736 33.4269 27.8756ZM54.8303 45.8122C54.5714 45.8571 54.4429 45.8463 54.35 45.9002C52.8057 46.7836 51.2524 47.6508 49.7401 48.588C49.4884 48.7442 49.3063 49.2056 49.2956 49.5324C49.2474 51.055 49.2706 52.5793 49.2688 54.1018C49.2688 54.5292 49.2688 54.9583 49.2688 55.5005C51.0988 54.4466 52.7949 53.4788 54.4732 52.4841C54.6446 52.3818 54.8125 52.1071 54.8142 51.9114C54.8392 49.9166 54.8303 47.9183 54.8303 45.8122ZM23.2501 45.735C23.2501 47.9201 23.2305 49.8861 23.2734 51.8521C23.2787 52.1035 23.5537 52.4285 23.7911 52.5829C24.6874 53.1628 25.6158 53.6943 26.5388 54.2311C27.2369 54.6387 27.9475 55.0265 28.7956 55.5059C28.7956 53.7051 28.7295 52.0945 28.8188 50.4912C28.8813 49.3601 28.6224 48.6185 27.519 48.105C26.1086 47.4479 24.7874 46.6004 23.2501 45.735Z"/>
</mask>
<path d="M33.2716 52.2076C33.2716 53.8541 33.2984 55.5005 33.2573 57.1469C33.2412 57.7897 33.4251 58.1973 34 58.5169C35.5837 59.3967 37.1352 60.3375 38.7153 61.2262C38.8778 61.3178 39.1848 61.2998 39.3545 61.2065C40.9399 60.3249 42.5057 59.4074 44.0876 58.5205C44.6071 58.2296 44.8267 57.8597 44.8196 57.2313C44.7874 54.0282 44.8606 50.8234 44.7714 47.6238C44.741 46.5735 45.1552 46.1067 45.9908 45.6417C48.7939 44.0814 51.5648 42.4565 54.3179 40.8083C54.6232 40.627 54.9071 40.1386 54.9196 39.7813C54.9821 38.0469 54.9874 36.3089 54.9178 34.5745C54.9017 34.1867 54.6 33.666 54.2715 33.4595C52.8128 32.5438 51.2809 31.7484 49.8133 30.8471C49.3027 30.5329 48.9331 30.5473 48.4368 30.8381C45.6194 32.4953 42.7824 34.1184 39.9597 35.7667C39.3955 36.0952 38.9045 36.2927 38.2404 35.8941C35.3605 34.1687 32.4557 32.481 29.533 30.8291C29.2223 30.6532 28.6563 30.6478 28.3421 30.8166C26.8013 31.6443 25.2909 32.5312 23.8108 33.4649C23.5287 33.6426 23.2876 34.1184 23.2751 34.4649C23.218 36.0503 23.3287 37.6429 23.2216 39.2211C23.1519 40.2607 23.5769 40.7832 24.4142 41.2518C27.087 42.7474 29.7151 44.3238 32.3842 45.8248C33.0288 46.1875 33.3216 46.5843 33.2894 47.3635C33.2234 48.974 33.2698 50.5917 33.2716 52.2076ZM28.8384 67.2589C28.8634 66.8173 28.8938 66.5318 28.8938 66.2445C28.8974 64.7184 28.8581 63.1922 28.9117 61.6697C28.9349 60.9874 28.7331 60.5834 28.1386 60.2423C25.2748 58.6084 22.4414 56.9189 19.5758 55.2887C18.9902 54.9547 18.7313 54.5902 18.7402 53.8864C18.7795 50.8072 18.7241 47.7244 18.7813 44.6452C18.8009 43.5966 18.6367 42.8695 17.5708 42.3775C16.2835 41.7814 15.0998 40.9627 13.8643 40.2517C13.65 40.1278 13.4054 40.056 13.1055 39.9303C13.1055 40.2409 13.1055 40.4474 13.1055 40.6557C13.1055 46.1588 13.1216 51.6618 13.0859 57.1649C13.0805 57.9441 13.3769 58.3301 14.0125 58.6928C17.394 60.6176 20.7524 62.5836 24.1196 64.5334C25.6515 65.4222 27.1852 66.3038 28.8384 67.2589ZM54.7553 22.0135C54.6375 21.9093 54.5661 21.8196 54.4732 21.7657C52.5182 20.6346 50.5578 19.507 48.6028 18.3777C45.6212 16.654 42.6325 14.943 39.6687 13.1888C39.092 12.8477 38.6706 13.02 38.1904 13.3019C34.1643 15.6575 30.1347 18.0096 26.1086 20.3634C25.2034 20.8931 24.3035 21.4299 23.3376 22.0009C25.1052 23.0458 26.7245 24.0351 28.385 24.9544C28.6724 25.1124 29.1991 25.1088 29.4865 24.9472C32.1807 23.4337 34.8856 21.9345 37.4994 20.288C38.6421 19.568 39.483 19.5914 40.615 20.297C43.2359 21.9345 45.9426 23.4337 48.6385 24.9419C48.9206 25.0999 49.4438 25.0909 49.7312 24.9329C51.4095 24.0064 53.0521 23.0117 54.7553 22.0135ZM49.2777 67.2141C50.5239 66.4779 51.6077 65.8226 52.7039 65.1906C56.5407 62.9732 60.3829 60.763 64.2233 58.5528C64.75 58.2494 65.0035 57.8651 65 57.1936C64.9678 51.6546 64.9821 46.1175 64.9785 40.5785C64.9785 40.3594 64.9321 40.1404 64.8982 39.8352C63.2592 40.7885 61.7327 41.7132 60.1687 42.566C59.5438 42.9072 59.2778 43.2932 59.2867 44.0329C59.3224 47.3563 59.3081 50.6797 59.2688 54.0013C59.2653 54.3568 59.0938 54.8757 58.8314 55.0355C56.0587 56.716 53.2734 58.3804 50.44 59.9532C49.5473 60.4488 49.1688 60.9551 49.2474 62.0234C49.367 63.677 49.2777 65.3486 49.2777 67.2141ZM24.4374 27.8595C22.6431 26.7876 20.897 25.7336 19.1348 24.7102C18.9759 24.6187 18.6634 24.651 18.4903 24.7497C16.8905 25.66 15.3105 26.6062 13.7143 27.5219C13.2483 27.7894 13.0716 28.1342 13.093 28.68C13.1358 29.7249 13.2376 30.7932 13.0787 31.8149C12.7448 33.973 13.4554 35.3447 15.5497 36.1168C16.6531 36.5243 17.6279 37.2856 18.7581 37.9463C18.7581 35.878 18.7724 33.9658 18.7491 32.0554C18.742 31.5024 18.8438 31.1416 19.3937 30.8381C21.0755 29.9063 22.7092 28.8883 24.4374 27.8595ZM33.2805 63.2712C33.2805 65.3971 33.2627 67.3685 33.3019 69.3399C33.3073 69.5966 33.5501 69.9414 33.7804 70.085C35.2445 70.9953 36.7424 71.8499 38.2154 72.7441C38.7546 73.0726 39.2188 73.0888 39.7829 72.7477C41.2809 71.8428 42.8199 71.0079 44.3268 70.1191C44.5303 69.9988 44.7803 69.7331 44.7839 69.5302C44.8178 67.4816 44.8053 65.433 44.8053 63.2443C43.0235 64.2641 41.3702 65.1906 39.7401 66.1565C39.2509 66.4474 38.876 66.4833 38.3582 66.1709C36.7353 65.196 35.0731 64.2875 33.2805 63.2712ZM59.2938 37.8925C61.1774 36.8224 62.8664 35.8941 64.5126 34.8959C64.7661 34.7414 64.9482 34.2692 64.9571 33.9389C65.0018 32.147 65.0053 30.3516 64.9589 28.5597C64.9518 28.2563 64.7036 27.8469 64.4447 27.6817C63.0396 26.7894 61.5756 25.9922 60.1776 25.0909C59.4616 24.6294 58.876 24.5684 58.1779 25.0999C57.6619 25.4931 57.0513 25.7606 56.4889 26.0927C55.5516 26.6457 54.6196 27.2041 53.5395 27.8469C54.9803 28.6674 56.2408 29.4323 57.5441 30.1146C58.7564 30.7484 59.5224 31.4917 59.3349 33.0663C59.151 34.5906 59.2938 36.1563 59.2938 37.8925ZM33.4269 27.8756C35.2177 28.9278 36.8603 29.9224 38.5403 30.8489C38.8117 30.9979 39.2741 30.9117 39.6062 30.8022C39.9615 30.6855 40.2614 30.4054 40.5953 30.2133C41.9111 29.4538 43.2323 28.7015 44.6428 27.8936C43.3216 27.0892 42.1147 26.3495 40.9024 25.6187C39.0634 24.5091 39.0616 24.5109 37.1602 25.6331C37.0067 25.7229 36.8478 25.8037 36.6942 25.8952C35.639 26.5326 34.5839 27.1736 33.4269 27.8756ZM54.8303 45.8122C54.5714 45.8571 54.4429 45.8463 54.35 45.9002C52.8057 46.7836 51.2524 47.6508 49.7401 48.588C49.4884 48.7442 49.3063 49.2056 49.2956 49.5324C49.2474 51.055 49.2706 52.5793 49.2688 54.1018C49.2688 54.5292 49.2688 54.9583 49.2688 55.5005C51.0988 54.4466 52.7949 53.4788 54.4732 52.4841C54.6446 52.3818 54.8125 52.1071 54.8142 51.9114C54.8392 49.9166 54.8303 47.9183 54.8303 45.8122ZM23.2501 45.735C23.2501 47.9201 23.2305 49.8861 23.2734 51.8521C23.2787 52.1035 23.5537 52.4285 23.7911 52.5829C24.6874 53.1628 25.6158 53.6943 26.5388 54.2311C27.2369 54.6387 27.9475 55.0265 28.7956 55.5059C28.7956 53.7051 28.7295 52.0945 28.8188 50.4912C28.8813 49.3601 28.6224 48.6185 27.519 48.105C26.1086 47.4479 24.7874 46.6004 23.2501 45.735Z" fill="#F2BD14"/>
<path d="M33.2716 52.2076C33.2716 53.8541 33.2984 55.5005 33.2573 57.1469C33.2412 57.7897 33.4251 58.1973 34 58.5169C35.5837 59.3967 37.1352 60.3375 38.7153 61.2262C38.8778 61.3178 39.1848 61.2998 39.3545 61.2065C40.9399 60.3249 42.5057 59.4074 44.0876 58.5205C44.6071 58.2296 44.8267 57.8597 44.8196 57.2313C44.7874 54.0282 44.8606 50.8234 44.7714 47.6238C44.741 46.5735 45.1552 46.1067 45.9908 45.6417C48.7939 44.0814 51.5648 42.4565 54.3179 40.8083C54.6232 40.627 54.9071 40.1386 54.9196 39.7813C54.9821 38.0469 54.9874 36.3089 54.9178 34.5745C54.9017 34.1867 54.6 33.666 54.2715 33.4595C52.8128 32.5438 51.2809 31.7484 49.8133 30.8471C49.3027 30.5329 48.9331 30.5473 48.4368 30.8381C45.6194 32.4953 42.7824 34.1184 39.9597 35.7667C39.3955 36.0952 38.9045 36.2927 38.2404 35.8941C35.3605 34.1687 32.4557 32.481 29.533 30.8291C29.2223 30.6532 28.6563 30.6478 28.3421 30.8166C26.8013 31.6443 25.2909 32.5312 23.8108 33.4649C23.5287 33.6426 23.2876 34.1184 23.2751 34.4649C23.218 36.0503 23.3287 37.6429 23.2216 39.2211C23.1519 40.2607 23.5769 40.7832 24.4142 41.2518C27.087 42.7474 29.7151 44.3238 32.3842 45.8248C33.0288 46.1875 33.3216 46.5843 33.2894 47.3635C33.2234 48.974 33.2698 50.5917 33.2716 52.2076ZM28.8384 67.2589C28.8634 66.8173 28.8938 66.5318 28.8938 66.2445C28.8974 64.7184 28.8581 63.1922 28.9117 61.6697C28.9349 60.9874 28.7331 60.5834 28.1386 60.2423C25.2748 58.6084 22.4414 56.9189 19.5758 55.2887C18.9902 54.9547 18.7313 54.5902 18.7402 53.8864C18.7795 50.8072 18.7241 47.7244 18.7813 44.6452C18.8009 43.5966 18.6367 42.8695 17.5708 42.3775C16.2835 41.7814 15.0998 40.9627 13.8643 40.2517C13.65 40.1278 13.4054 40.056 13.1055 39.9303C13.1055 40.2409 13.1055 40.4474 13.1055 40.6557C13.1055 46.1588 13.1216 51.6618 13.0859 57.1649C13.0805 57.9441 13.3769 58.3301 14.0125 58.6928C17.394 60.6176 20.7524 62.5836 24.1196 64.5334C25.6515 65.4222 27.1852 66.3038 28.8384 67.2589ZM54.7553 22.0135C54.6375 21.9093 54.5661 21.8196 54.4732 21.7657C52.5182 20.6346 50.5578 19.507 48.6028 18.3777C45.6212 16.654 42.6325 14.943 39.6687 13.1888C39.092 12.8477 38.6706 13.02 38.1904 13.3019C34.1643 15.6575 30.1347 18.0096 26.1086 20.3634C25.2034 20.8931 24.3035 21.4299 23.3376 22.0009C25.1052 23.0458 26.7245 24.0351 28.385 24.9544C28.6724 25.1124 29.1991 25.1088 29.4865 24.9472C32.1807 23.4337 34.8856 21.9345 37.4994 20.288C38.6421 19.568 39.483 19.5914 40.615 20.297C43.2359 21.9345 45.9426 23.4337 48.6385 24.9419C48.9206 25.0999 49.4438 25.0909 49.7312 24.9329C51.4095 24.0064 53.0521 23.0117 54.7553 22.0135ZM49.2777 67.2141C50.5239 66.4779 51.6077 65.8226 52.7039 65.1906C56.5407 62.9732 60.3829 60.763 64.2233 58.5528C64.75 58.2494 65.0035 57.8651 65 57.1936C64.9678 51.6546 64.9821 46.1175 64.9785 40.5785C64.9785 40.3594 64.9321 40.1404 64.8982 39.8352C63.2592 40.7885 61.7327 41.7132 60.1687 42.566C59.5438 42.9072 59.2778 43.2932 59.2867 44.0329C59.3224 47.3563 59.3081 50.6797 59.2688 54.0013C59.2653 54.3568 59.0938 54.8757 58.8314 55.0355C56.0587 56.716 53.2734 58.3804 50.44 59.9532C49.5473 60.4488 49.1688 60.9551 49.2474 62.0234C49.367 63.677 49.2777 65.3486 49.2777 67.2141ZM24.4374 27.8595C22.6431 26.7876 20.897 25.7336 19.1348 24.7102C18.9759 24.6187 18.6634 24.651 18.4903 24.7497C16.8905 25.66 15.3105 26.6062 13.7143 27.5219C13.2483 27.7894 13.0716 28.1342 13.093 28.68C13.1358 29.7249 13.2376 30.7932 13.0787 31.8149C12.7448 33.973 13.4554 35.3447 15.5497 36.1168C16.6531 36.5243 17.6279 37.2856 18.7581 37.9463C18.7581 35.878 18.7724 33.9658 18.7491 32.0554C18.742 31.5024 18.8438 31.1416 19.3937 30.8381C21.0755 29.9063 22.7092 28.8883 24.4374 27.8595ZM33.2805 63.2712C33.2805 65.3971 33.2627 67.3685 33.3019 69.3399C33.3073 69.5966 33.5501 69.9414 33.7804 70.085C35.2445 70.9953 36.7424 71.8499 38.2154 72.7441C38.7546 73.0726 39.2188 73.0888 39.7829 72.7477C41.2809 71.8428 42.8199 71.0079 44.3268 70.1191C44.5303 69.9988 44.7803 69.7331 44.7839 69.5302C44.8178 67.4816 44.8053 65.433 44.8053 63.2443C43.0235 64.2641 41.3702 65.1906 39.7401 66.1565C39.2509 66.4474 38.876 66.4833 38.3582 66.1709C36.7353 65.196 35.0731 64.2875 33.2805 63.2712ZM59.2938 37.8925C61.1774 36.8224 62.8664 35.8941 64.5126 34.8959C64.7661 34.7414 64.9482 34.2692 64.9571 33.9389C65.0018 32.147 65.0053 30.3516 64.9589 28.5597C64.9518 28.2563 64.7036 27.8469 64.4447 27.6817C63.0396 26.7894 61.5756 25.9922 60.1776 25.0909C59.4616 24.6294 58.876 24.5684 58.1779 25.0999C57.6619 25.4931 57.0513 25.7606 56.4889 26.0927C55.5516 26.6457 54.6196 27.2041 53.5395 27.8469C54.9803 28.6674 56.2408 29.4323 57.5441 30.1146C58.7564 30.7484 59.5224 31.4917 59.3349 33.0663C59.151 34.5906 59.2938 36.1563 59.2938 37.8925ZM33.4269 27.8756C35.2177 28.9278 36.8603 29.9224 38.5403 30.8489C38.8117 30.9979 39.2741 30.9117 39.6062 30.8022C39.9615 30.6855 40.2614 30.4054 40.5953 30.2133C41.9111 29.4538 43.2323 28.7015 44.6428 27.8936C43.3216 27.0892 42.1147 26.3495 40.9024 25.6187C39.0634 24.5091 39.0616 24.5109 37.1602 25.6331C37.0067 25.7229 36.8478 25.8037 36.6942 25.8952C35.639 26.5326 34.5839 27.1736 33.4269 27.8756ZM54.8303 45.8122C54.5714 45.8571 54.4429 45.8463 54.35 45.9002C52.8057 46.7836 51.2524 47.6508 49.7401 48.588C49.4884 48.7442 49.3063 49.2056 49.2956 49.5324C49.2474 51.055 49.2706 52.5793 49.2688 54.1018C49.2688 54.5292 49.2688 54.9583 49.2688 55.5005C51.0988 54.4466 52.7949 53.4788 54.4732 52.4841C54.6446 52.3818 54.8125 52.1071 54.8142 51.9114C54.8392 49.9166 54.8303 47.9183 54.8303 45.8122ZM23.2501 45.735C23.2501 47.9201 23.2305 49.8861 23.2734 51.8521C23.2787 52.1035 23.5537 52.4285 23.7911 52.5829C24.6874 53.1628 25.6158 53.6943 26.5388 54.2311C27.2369 54.6387 27.9475 55.0265 28.7956 55.5059C28.7956 53.7051 28.7295 52.0945 28.8188 50.4912C28.8813 49.3601 28.6224 48.6185 27.519 48.105C26.1086 47.4479 24.7874 46.6004 23.2501 45.735Z" stroke="#17191E" stroke-width="4.8" mask="url(#path-1-outside-1_17031_3800)"/>
<path d="M32.07 52.2088L32.07 52.2075C32.07 51.7573 32.0661 51.2977 32.0622 50.8323C32.0526 49.6757 32.0426 48.4833 32.0906 47.3107L32.0906 47.3102C32.0955 47.1932 32.0865 47.1272 32.0796 47.0954C32.0763 47.08 32.0734 47.0721 32.0723 47.0693C32.0714 47.0671 32.0709 47.0662 32.0706 47.0656L32.0704 47.0654C32.07 47.0647 32.0677 47.0611 32.0615 47.054C32.0551 47.0467 32.0434 47.0345 32.0236 47.0176C31.9824 46.9824 31.913 46.9326 31.7972 46.8676L31.7962 46.867C30.5027 46.1396 29.2196 45.3951 27.9447 44.6553L27.7985 44.5705C26.4729 43.8013 25.1554 43.0378 23.8284 42.2953L23.8284 42.2952C23.3336 42.0184 22.8204 41.6511 22.4643 41.0891C22.0926 40.5025 21.9772 39.8417 22.0244 39.1372L22.0245 39.1362C22.0746 38.3964 22.0744 37.6437 22.0673 36.8515C22.0664 36.7506 22.0654 36.6489 22.0644 36.5465C22.0574 35.858 22.0501 35.137 22.0761 34.418C22.0905 34.0192 22.2228 33.6376 22.3792 33.3402C22.5309 33.0516 22.7852 32.69 23.1695 32.447L23.1707 32.4462L23.1707 32.4462C24.6726 31.4988 26.2088 30.5977 27.7739 29.756C28.1688 29.5433 28.6102 29.4868 28.9519 29.4906C29.2951 29.4945 29.7323 29.5614 30.1199 29.7787L30.1236 29.7807L30.1236 29.7807C33.0548 31.4374 35.9665 33.1301 38.857 34.8609L38.858 34.8615C38.9211 34.8993 38.9551 34.9097 38.964 34.912C38.9734 34.9105 39.0059 34.9039 39.0717 34.8755C39.1425 34.845 39.2311 34.7987 39.356 34.726C40.4878 34.0658 41.6167 33.4126 42.7435 32.7605C44.4416 31.7779 46.1351 30.7979 47.8275 29.8007L32.07 52.2088ZM32.07 52.2088C32.0705 52.6632 32.0728 53.1132 32.0751 53.5603C32.0813 54.7575 32.0874 55.9335 32.0579 57.1132L32.0579 57.1133C32.047 57.5472 32.0985 58.036 32.3434 58.5052C32.5954 58.9882 32.984 59.3212 33.4172 59.562L33.418 59.5624C34.2942 60.0487 35.0995 60.5184 35.9166 60.9952C36.6264 61.4093 37.3452 61.8286 38.1272 62.2684C38.4764 62.465 38.8437 62.4907 39.0779 62.4818C39.3229 62.4725 39.6413 62.4168 39.9378 62.2515C40.7883 61.7786 41.6666 61.2762 42.537 60.7783C43.2618 60.3637 43.9812 59.9522 44.6746 59.5634C45.0611 59.347 45.4345 59.0451 45.6922 58.5958C45.9489 58.1483 46.0248 57.6694 46.0197 57.214L44.8197 57.2276M32.07 52.2088L54.938 41.832M50.4424 29.8214L50.4424 29.8214C51.116 30.2359 51.8054 30.6278 52.5159 31.0317C52.5569 31.055 52.598 31.0783 52.6391 31.1017C53.3863 31.5266 54.1553 31.9659 54.9096 32.4394L54.9102 32.4398C55.2904 32.6788 55.5696 33.032 55.7502 33.3435C55.9308 33.6551 56.0983 34.0727 56.1169 34.5211L56.117 34.5226C56.188 36.2892 56.1824 38.0594 56.119 39.8195L50.4424 29.8214ZM50.4424 29.8214C50.074 29.5947 49.6342 29.4103 49.1174 29.4113M50.4424 29.8214L49.1174 29.4113M54.938 41.832L54.9345 41.8342C52.1756 43.4858 49.3929 45.1178 46.5746 46.6865L46.5745 46.6865C46.2135 46.8874 46.1009 47.0067 46.0556 47.0746C46.0281 47.1158 45.9613 47.2286 45.9711 47.5876C46.0255 49.5399 46.0199 51.5249 46.0144 53.4876C46.0109 54.7442 46.0074 55.9917 46.0197 57.2156L44.8197 57.2276M54.938 41.832C55.3172 41.6033 55.5904 41.2581 55.7632 40.9633M54.938 41.832L55.7632 40.9633M44.8197 57.2276C44.8269 57.856 44.6073 58.2259 44.0877 58.5168L44.7715 47.6201C44.8257 49.5623 44.82 51.5058 44.8144 53.449C44.8108 54.7088 44.8071 55.9685 44.8197 57.2276ZM49.1174 29.4113C48.6052 29.4124 48.1752 29.5957 47.8278 29.8005L49.1174 29.4113ZM55.7632 40.9633C55.9362 40.6682 56.1032 40.2622 56.119 39.8208L55.7632 40.9633Z" fill="#F2BD14" stroke="#17191E" stroke-width="2.4"/>
<path d="M29.9265 69.2734L28.2383 68.298C27.5465 67.8984 26.8741 67.5107 26.2135 67.1298C25.2992 66.6026 24.4076 66.0885 23.5185 65.5738L23.5184 65.5737C22.559 65.0182 21.6017 64.462 20.6453 63.9063C18.2378 62.5074 15.8357 61.1118 13.4194 59.7378C13.0215 59.5118 12.5995 59.2064 12.2975 58.7333C11.9855 58.2445 11.8823 57.706 11.886 57.1589L29.9265 69.2734ZM29.9265 69.2734L30.0367 67.3268M29.9265 69.2734L30.0367 67.3268M30.0367 67.3268C30.043 67.2151 30.0508 67.1012 30.0587 66.9874C30.0763 66.731 30.0938 66.4755 30.0939 66.2485M30.0367 67.3268L30.0939 66.2485M11.9056 38.1323L13.5671 38.8244C13.6529 38.8602 13.7179 38.8849 13.7939 38.9139C13.8412 38.9319 13.8928 38.9515 13.9564 38.9765C14.0966 39.0315 14.2777 39.1064 14.4641 39.2141C14.9338 39.4844 15.3633 39.7481 15.7751 40.0009C16.5545 40.4794 17.2702 40.9188 18.0739 41.2898L18.0753 41.2905C18.8086 41.6302 19.3583 42.1178 19.6738 42.8052C19.9639 43.4371 19.9917 44.1094 19.9812 44.6695L19.9812 44.67C19.9487 46.3676 19.9514 48.008 19.9542 49.6624C19.9565 51.052 19.9588 52.4516 19.9403 53.9035L11.9056 38.1323ZM11.9056 38.1323V39.9321M11.9056 38.1323V39.9321M30.0939 66.2485C30.0958 65.7212 30.0924 65.2067 30.0891 64.6993C30.0824 63.6914 30.076 62.7114 30.111 61.7143C30.111 61.7141 30.1111 61.7139 30.1111 61.7137L30.0939 66.2485ZM11.9056 39.9321V39.9339V39.9358V39.9376V39.9394V39.9412V39.943V39.9448V39.9466V39.9484V39.9502V39.952V39.9538V39.9556V39.9574V39.9592V39.9609V39.9627V39.9645V39.9663V39.9681V39.9698V39.9716V39.9734V39.9751V39.9769V39.9787V39.9804V39.9822V39.9839V39.9857V39.9874V39.9892V39.9909V39.9927V39.9944V39.9961V39.9979V39.9996V40.0013V40.0031V40.0048V40.0065V40.0082V40.01V40.0117V40.0134V40.0151V40.0168V40.0185V40.0202V40.022V40.0237V40.0254V40.0271V40.0288V40.0305V40.0321V40.0338V40.0355V40.0372V40.0389V40.0406V40.0423V40.0439V40.0456V40.0473V40.049V40.0506V40.0523V40.054V40.0556V40.0573V40.0589V40.0606V40.0623V40.0639V40.0656V40.0672V40.0689V40.0705V40.0721V40.0738V40.0754V40.0771V40.0787V40.0803V40.082V40.0836V40.0852V40.0869V40.0885V40.0901V40.0917V40.0933V40.095V40.0966V40.0982V40.0998V40.1014V40.103V40.1046V40.1062V40.1078V40.1094V40.111V40.1126V40.1142V40.1158V40.1174V40.119V40.1205V40.1221V40.1237V40.1253V40.1269V40.1284V40.13V40.1316V40.1332V40.1347V40.1363V40.1379V40.1394V40.141V40.1425V40.1441V40.1457V40.1472V40.1488V40.1503V40.1519V40.1534V40.155V40.1565V40.1581V40.1596V40.1611V40.1627V40.1642V40.1657V40.1673V40.1688V40.1703V40.1719V40.1734V40.1749V40.1764V40.1779V40.1795V40.181V40.1825V40.184V40.1855V40.187V40.1885V40.19V40.1915V40.1931V40.1946V40.1961V40.1976V40.199V40.2005V40.202V40.2035V40.205V40.2065V40.208V40.2095V40.211V40.2124V40.2139V40.2154V40.2169V40.2184V40.2198V40.2213V40.2228V40.2243V40.2257V40.2272V40.2287V40.2301V40.2316V40.233V40.2345V40.236V40.2374V40.2389V40.2403V40.2418V40.2432V40.2447V40.2461V40.2476V40.249V40.2505V40.2519V40.2533V40.2548V40.2562V40.2576V40.2591V40.2605V40.2619V40.2634V40.2648V40.2662V40.2677V40.2691V40.2705V40.2719V40.2733V40.2748V40.2762V40.2776V40.279V40.2804V40.2818V40.2833V40.2847V40.2861V40.2875V40.2889V40.2903V40.2917V40.2931V40.2945V40.2959V40.2973V40.2987V40.3001V40.3015V40.3029V40.3043V40.3056V40.307V40.3084V40.3098V40.3112V40.3126V40.314V40.3153V40.3167V40.3181V40.3195V40.3209V40.3222V40.3236V40.325V40.3263V40.3277V40.3291V40.3305V40.3318V40.3332V40.3346V40.3359V40.3373V40.3386V40.34V40.3414V40.3427V40.3441V40.3454V40.3468V40.3481V40.3495V40.3508V40.3522V40.3535V40.3549V40.3562V40.3576V40.3589V40.3603V40.3616V40.3629V40.3643V40.3656V40.367V40.3683V40.3696V40.371V40.3723V40.3736V40.375V40.3763V40.3776V40.379V40.3803V40.3816V40.3829V40.3843V40.3856V40.3869V40.3882V40.3895V40.3909V40.3922V40.3935V40.3948V40.3961V40.3974V40.3988V40.4001V40.4014V40.4027V40.404V40.4053V40.4066V40.4079V40.4092V40.4105V40.4118V40.4131V40.4145V40.4158V40.4171V40.4184V40.4197V40.421V40.4222V40.4235V40.4248V40.4261V40.4274V40.4287V40.43V40.4313V40.4326V40.4339V40.4352V40.4365V40.4378V40.439V40.4403V40.4416V40.4429V40.4442V40.4455V40.4467V40.448V40.4493V40.4506V40.4519V40.4531V40.4544V40.4557V40.457V40.4583V40.4595V40.4608V40.4621V40.4633V40.4646V40.4659V40.4672V40.4684V40.4697V40.471V40.4722V40.4735V40.4748V40.476V40.4773V40.4786V40.4798V40.4811V40.4824V40.4836V40.4849V40.4861V40.4874V40.4887V40.4899V40.4912V40.4924V40.4937V40.4949V40.4962V40.4975V40.4987V40.5V40.5012V40.5025V40.5037V40.505V40.5062V40.5075V40.5087V40.51V40.5112V40.5125V40.5137V40.515V40.5162V40.5175V40.5187V40.52V40.5212V40.5224V40.5237V40.5249V40.5262V40.5274V40.5287V40.5299V40.5311V40.5324V40.5336V40.5349V40.5361V40.5373V40.5386V40.5398V40.5411V40.5423V40.5435V40.5448V40.546V40.5472V40.5485V40.5497V40.551V40.5522V40.5534V40.5547V40.5559V40.5571V40.5584V40.5596V40.5608V40.5621V40.5633V40.5645V40.5657V40.567V40.5682V40.5694V40.5707V40.5719V40.5731V40.5744V40.5756V40.5768V40.578V40.5793V40.5805V40.5817V40.5829V40.5842V40.5854V40.5866V40.5879V40.5891V40.5903V40.5915V40.5928V40.594V40.5952V40.5964V40.5976V40.5989V40.6001V40.6013V40.6025V40.6038V40.605V40.6062V40.6074V40.6087V40.6099V40.6111V40.6123V40.6135V40.6148V40.616V40.6172V40.6184V40.6197V40.6209V40.6221V40.6233V40.6245V40.6258V40.627V40.6282V40.6294V40.6306V40.6319V40.6331V40.6343V40.6355V40.6367V40.638V40.6392V40.6404V40.6416V40.6428V40.6441V40.6453V40.6465V40.6477V40.6489V40.6502V40.6514V40.6526V40.6538V40.655V40.6563V40.6575C11.9056 41.9628 11.9065 43.2675 11.9074 44.5717M11.9056 39.9321L11.9074 44.5717M20.169 54.2473L20.1698 54.2477C21.6086 55.0672 23.0383 55.9 24.4622 56.7298L24.5433 56.7771C25.9416 57.592 27.3342 58.4036 28.7334 59.2018L20.169 54.2473ZM20.169 54.2473C20.0217 54.1635 19.9701 54.113 19.9569 54.098M20.169 54.2473L19.9569 54.098M11.9074 44.5717C11.9104 48.7702 11.9133 52.9637 11.886 57.1585L11.9074 44.5717ZM19.9569 54.098C19.9507 54.0781 19.9388 54.022 19.9403 53.9035L19.9569 54.098ZM19.9531 54.0933C19.9532 54.0933 19.9537 54.094 19.9545 54.0952C19.9535 54.094 19.9531 54.0933 19.9531 54.0933ZM19.9605 54.1069C19.9603 54.1071 19.9593 54.1052 19.9578 54.1007C19.9598 54.1045 19.9606 54.1068 19.9605 54.1069Z" fill="#F2BD14" stroke="#17191E" stroke-width="2.4"/>
<path d="M56.7789 22.2169L55.363 23.0483C54.9535 23.2887 54.545 23.5302 54.1368 23.7716C52.8646 24.5239 51.5952 25.2744 50.309 25.9837L50.3076 25.9845C49.9368 26.1883 49.5221 26.2521 49.1952 26.2558C48.8721 26.2594 48.4412 26.2063 48.0533 25.9904L48.0505 25.9888C47.7986 25.8477 47.5462 25.7065 47.2935 25.5652C44.8519 24.1994 42.3781 22.8155 39.9771 21.3145L39.9766 21.3142C39.5135 21.0243 39.2402 20.9587 39.0509 20.9572C38.8658 20.9558 38.5958 21.0145 38.1374 21.3033L38.1373 21.3034C35.7396 22.8136 33.2676 24.2006 30.8276 25.5696C30.5757 25.711 30.324 25.8522 30.0729 25.9933L56.7789 22.2169ZM56.7789 22.2169L55.5569 21.1203M56.7789 22.2169L55.5569 21.1203M55.5569 21.1203C55.5446 21.1093 55.5309 21.0964 55.5106 21.0767C55.5074 21.0736 55.503 21.0694 55.4979 21.0644C55.4801 21.047 55.4526 21.0202 55.4298 20.9986C55.3678 20.9401 55.2434 20.8251 55.0702 20.7257C54.0226 20.1196 52.9692 19.5122 51.9166 18.9053C51.0097 18.3825 50.1033 17.8599 49.2017 17.3387C48.529 16.9499 47.8567 16.5621 47.185 16.1746C44.8737 14.8414 42.5692 13.512 40.2782 12.1561L40.278 12.156C39.7778 11.8601 39.2512 11.7443 38.7118 11.8258C38.2312 11.8984 37.8367 12.1175 37.5825 12.2663C35.1913 13.6653 32.7995 15.0628 30.4076 16.4603C28.7721 17.4158 27.1366 18.3713 25.5012 19.3275L25.5008 19.3277C24.8893 19.6855 24.2781 20.0479 23.6508 20.4197C23.3467 20.6 23.0388 20.7825 22.7253 20.9679L20.9778 22.0008M55.5569 21.1203L20.9778 22.0008M20.9778 22.0008L22.7252 23.0339M20.9778 22.0008L22.7252 23.0339M22.7252 23.0339C23.1704 23.2971 23.6092 23.5585 24.0437 23.8175C25.3142 24.5746 26.5483 25.3101 27.7997 26.003M22.7252 23.0339L27.7997 26.003M27.7997 26.003C28.1863 26.2185 28.6172 26.2738 28.9426 26.2713C29.2707 26.2688 29.6944 26.2059 30.0726 25.9934L27.7997 26.003Z" fill="#F2BD14" stroke="#17191E" stroke-width="2.4"/>
<path d="M59.2848 44.0293C59.3187 47.3509 59.3044 50.6743 59.2669 53.9977C59.2633 54.3532 59.0919 54.8721 58.8295 55.0319C56.0567 56.7124 53.2715 58.3768 50.4381 59.9496L59.2848 44.0293ZM59.2848 44.0293C59.2776 43.2878 59.5418 42.9018 60.1667 42.5624L59.2848 44.0293ZM49.2776 67.214L48.6673 66.1808C48.8786 66.056 49.0861 65.933 49.2904 65.8117C49.2836 66.2684 49.2776 66.7348 49.2776 67.214ZM49.2776 67.214H50.4776C50.4776 66.9761 50.4792 66.7378 50.4818 66.4996C50.0943 66.7301 49.695 66.9674 49.2776 67.214ZM48.0776 67.214V69.3166L49.8879 68.2472C50.3752 67.9594 50.8334 67.6867 51.2753 67.4238C51.9756 67.0071 52.6348 66.6148 53.304 66.225C57.1409 64.0104 60.9798 61.7993 64.8189 59.5898C65.201 59.3708 65.5767 59.0677 65.842 58.6183C66.1088 58.1663 66.2006 57.6738 66.198 57.1836L66.198 57.183C66.1748 53.1866 66.1758 49.1928 66.1768 45.1944C66.1772 43.6551 66.1776 42.1151 66.1766 40.5741C66.1766 40.3838 66.1564 40.2115 66.1389 40.0788C66.1318 40.0251 66.1254 39.9793 66.1195 39.9365C66.1085 39.8575 66.0989 39.7885 66.0889 39.699L65.8854 37.8679L64.2929 38.7943C63.8114 39.0744 63.3445 39.3491 62.8867 39.6185C61.7621 40.2802 60.6921 40.9098 59.5933 41.5083C59.1831 41.7311 58.7631 42.0371 58.4682 42.5138C58.1684 42.9984 58.0799 43.526 58.0848 44.0409L58.0848 44.0416C58.1186 47.3518 58.1044 50.6661 58.067 53.9842L58.067 53.9854C58.067 53.9854 58.0668 53.9908 58.0656 54.0015C58.0643 54.0133 58.0619 54.0285 58.0583 54.0465C58.0542 54.0665 58.0491 54.0863 58.0435 54.105C55.3283 55.7498 52.6128 57.37 49.8557 58.9004L49.8557 58.9004C49.3382 59.1877 48.8084 59.5624 48.453 60.1452C48.0842 60.75 47.998 61.4188 48.0487 62.1078L48.0487 62.1087C48.1302 63.2049 48.1136 64.2787 48.095 65.4748C48.0865 66.024 48.0776 66.5991 48.0776 67.214Z" fill="#F2BD14" stroke="#17191E" stroke-width="2.4"/>
<path d="M26.7795 27.8618L25.0512 28.8906C24.5747 29.1743 24.1002 29.4603 23.6267 29.7458C22.411 30.4787 21.201 31.2081 19.9749 31.8862C19.9665 31.8908 19.959 31.8951 19.9523 31.8991C19.95 31.932 19.9485 31.9777 19.9491 32.0405C19.9491 32.041 19.9491 32.0415 19.9491 32.042L18.7491 32.0536C18.7659 33.4287 18.7631 34.8047 18.7603 36.2393C18.7601 36.3393 18.7599 36.4396 18.7597 36.5402L26.7795 27.8618ZM26.7795 27.8618L25.0533 26.8295M26.7795 27.8618L25.0533 26.8295M25.0533 26.8295C24.6966 26.6162 24.341 26.4032 23.9864 26.1908C22.5646 25.339 21.1564 24.4954 19.7378 23.6709L19.7378 23.6709L19.7339 23.6687C19.3529 23.4491 18.9519 23.4433 18.7276 23.4601C18.4801 23.4787 18.1742 23.546 17.8948 23.706C17.0369 24.1943 16.152 24.7119 15.2747 25.2251C14.5435 25.6528 13.8177 26.0773 13.1172 26.4792L13.1169 26.4794M25.0533 26.8295L13.1169 26.4794M13.1169 26.4794C12.7457 26.6925 12.3943 26.9924 12.1609 27.431M13.1169 26.4794L12.1609 27.431M12.1609 27.431C11.9305 27.8638 11.8767 28.3162 11.894 28.7273L12.1609 27.431Z" fill="#F2BD14" stroke="#17191E" stroke-width="2.4"/>
<path d="M33.8732 62.2275L32.0809 61.2104V63.2711C32.0809 63.7775 32.0799 64.2774 32.0788 64.7722C32.0756 66.3385 32.0725 67.8543 32.1026 69.3672L32.1026 69.3684C32.112 69.818 32.3059 70.1931 32.4565 70.4206C32.6177 70.6641 32.8518 70.9234 33.1458 71.1067L33.1481 71.1081C33.9787 71.6236 34.853 72.1412 35.7142 72.6511C36.3552 73.0307 36.989 73.4059 37.5921 73.7728L37.5953 73.7747C37.9857 74.0105 38.4462 74.1941 38.9781 74.1998C39.5136 74.2054 39.9883 74.0295 40.4042 73.778L40.4044 73.778C41.2549 73.2635 42.0772 72.7962 42.915 72.3202C43.5724 71.9466 44.2392 71.5676 44.9368 71.1562L44.9377 71.1557C45.1666 71.0204 45.3844 70.8306 45.5553 70.624C45.6919 70.4589 45.9749 70.0749 45.9841 69.5548L45.9841 69.5536C46.0109 67.9325 46.0089 66.3093 46.0068 64.6305C46.0062 64.1741 46.0057 63.7135 46.0057 63.2478V61.1783L44.2096 62.2063C43.7149 62.4895 43.2277 62.7666 42.7465 63.0403C41.508 63.7449 40.3097 64.4265 39.1279 65.1282L39.1272 65.1286C39.0876 65.1522 39.0573 65.1681 39.0352 65.1787C39.0202 65.1711 39.0014 65.1607 38.9785 65.1469L38.9782 65.1467C37.7957 64.4338 36.5844 63.7533 35.3383 63.0533C34.8553 62.782 34.367 62.5077 33.8732 62.2275Z" fill="#F2BD14" stroke="#17191E" stroke-width="2.4"/>
<path d="M66.1567 28.528C66.1462 28.1003 65.9832 27.7196 65.8269 27.4556C65.6675 27.1865 65.4217 26.881 65.0883 26.6683L65.0867 26.6673C64.4026 26.2322 63.7058 25.8208 63.0286 25.4209C62.9916 25.399 62.9545 25.3771 62.9176 25.3553C62.1993 24.931 61.503 24.5178 60.8269 24.0811L60.8258 24.0804C60.3767 23.7909 59.8303 23.5343 59.1934 23.5214C58.5287 23.5081 57.9498 23.7621 57.4492 24.1432L57.4487 24.1436C57.263 24.2851 57.0444 24.4161 56.7725 24.5652C56.6988 24.6057 56.6154 24.6504 56.5266 24.6981C56.3217 24.808 56.0881 24.9333 55.8783 25.0568L55.8773 25.0574C55.2338 25.437 54.5914 25.82 53.9049 26.2293C53.5888 26.4179 53.2632 26.6119 52.9239 26.8138L51.1535 27.8674L52.9433 28.8876C53.3694 29.1304 53.7869 29.3729 54.1991 29.6121C55.1444 30.1609 56.0612 30.6931 56.9863 31.1762C57.5369 31.464 57.8232 31.6976 57.9759 31.9181C58.0982 32.0948 58.2075 32.3668 58.1415 32.9223C58.0056 34.0609 58.0374 35.274 58.0681 36.4457C58.081 36.9381 58.0937 37.4232 58.0937 37.8924V39.9543L59.8865 38.9358C60.3427 38.6767 60.79 38.4244 61.2299 38.1762C62.5872 37.4107 63.8738 36.685 65.1317 35.9209C65.5718 35.655 65.8077 35.2288 65.9239 34.9636C66.0544 34.6656 66.1455 34.3124 66.1548 33.9695L66.1549 33.9669C66.2 32.1572 66.2036 30.3417 66.1567 28.528ZM66.1567 28.528C66.1567 28.5276 66.1566 28.5272 66.1566 28.5268L64.957 28.5579L66.1567 28.5296C66.1567 28.5291 66.1567 28.5286 66.1567 28.528Z" fill="#F2BD14" stroke="#17191E" stroke-width="2.4"/>
<path d="M32.8042 26.8498L31.0847 27.8932L32.8196 28.9108C33.2908 29.1871 33.7549 29.4617 34.2145 29.7336C35.4818 30.4833 36.7141 31.2124 37.9607 31.8998L37.9626 31.9008C38.4075 32.1451 38.8768 32.1422 39.1543 32.1181C39.4631 32.0912 39.7548 32.0166 39.9788 31.9429C40.3226 31.8311 40.6003 31.6528 40.7803 31.5311C40.8656 31.4736 40.9284 31.4297 40.9799 31.3937C41.0657 31.3338 41.12 31.2958 41.1936 31.2535L41.1944 31.253C42.1103 30.7251 43.0262 30.2012 43.9749 29.6584C44.3891 29.4215 44.8096 29.1809 45.2391 28.9349L47.0031 27.9244L45.2661 26.8683C44.8005 26.5852 44.348 26.3093 43.9039 26.0386C43.0909 25.543 42.3064 25.0647 41.5224 24.5915L41.5222 24.5913L41.4847 24.5687C41.0592 24.312 40.6703 24.0773 40.3279 23.9131C39.9584 23.7359 39.5381 23.587 39.0494 23.5891C38.5644 23.5912 38.144 23.7416 37.7738 23.9174C37.4283 24.0813 37.0321 24.3152 36.593 24.5744C36.5795 24.5824 36.566 24.5904 36.5524 24.5984C36.4993 24.6293 36.4442 24.6595 36.3711 24.6995C36.3643 24.7032 36.3574 24.707 36.3503 24.7109C36.2723 24.7536 36.174 24.8075 36.0741 24.8678L36.0736 24.8682C35.1931 25.4 34.3125 25.9345 33.3742 26.5039C33.1867 26.6177 32.9968 26.7329 32.8042 26.8498Z" fill="#F2BD14" stroke="#17191E" stroke-width="2.4"/>
<path d="M56.0307 45.8123V44.3863L54.6257 44.6299C54.5626 44.6408 54.5267 44.6451 54.4751 44.6511C54.4478 44.6543 54.4162 44.658 54.3739 44.6635C54.3711 44.6639 54.368 44.6643 54.3647 44.6647C54.2786 44.6757 54.0225 44.7083 53.7634 44.8536L53.7634 44.8536L53.7546 44.8586C53.473 45.0197 53.1896 45.181 52.9051 45.343C51.6445 46.0609 50.3613 46.7915 49.1084 47.568L49.1078 47.5684C48.6844 47.8311 48.4508 48.2408 48.3318 48.5077C48.2005 48.8022 48.1078 49.1515 48.0966 49.4931L48.0966 49.4944C48.0601 50.6436 48.0637 51.8026 48.0672 52.9374C48.0684 53.3284 48.0696 53.7166 48.0692 54.1005V54.1019V54.1044V54.1069V54.1094V54.1119V54.1144V54.1169V54.1194V54.1219V54.1244V54.1269V54.1294V54.1319V54.1344V54.1369V54.1394V54.1419V54.1444V54.147V54.1495V54.152V54.1545V54.157V54.1595V54.162V54.1645V54.167V54.1695V54.172V54.1745V54.177V54.1795V54.182V54.1846V54.1871V54.1896V54.1921V54.1946V54.1971V54.1996V54.2021V54.2046V54.2071V54.2096V54.2122V54.2147V54.2172V54.2197V54.2222V54.2247V54.2272V54.2297V54.2322V54.2348V54.2373V54.2398V54.2423V54.2448V54.2473V54.2498V54.2524V54.2549V54.2574V54.2599V54.2624V54.2649V54.2675V54.27V54.2725V54.275V54.2775V54.28V54.2826V54.2851V54.2876V54.2901V54.2926V54.2952V54.2977V54.3002V54.3027V54.3053V54.3078V54.3103V54.3128V54.3154V54.3179V54.3204V54.3229V54.3255V54.328V54.3305V54.333V54.3356V54.3381V54.3406V54.3432V54.3457V54.3482V54.3508V54.3533V54.3558V54.3584V54.3609V54.3634V54.366V54.3685V54.371V54.3736V54.3761V54.3786V54.3812V54.3837V54.3863V54.3888V54.3913V54.3939V54.3964V54.399V54.4015V54.4041V54.4066V54.4092V54.4117V54.4142V54.4168V54.4193V54.4219V54.4244V54.427V54.4295V54.4321V54.4346V54.4372V54.4398V54.4423V54.4449V54.4474V54.45V54.4525V54.4551V54.4576V54.4602V54.4628V54.4653V54.4679V54.4705V54.473V54.4756V54.4781V54.4807V54.4833V54.4858V54.4884V54.491V54.4935V54.4961V54.4987V54.5013V54.5038V54.5064V54.509V54.5116V54.5141V54.5167V54.5193V54.5219V54.5244V54.527V54.5296V54.5322V54.5348V54.5374V54.5399V54.5425V54.5451V54.5477V54.5503V54.5529V54.5555V54.5581V54.5607V54.5633V54.5658V54.5684V54.571V54.5736V54.5762V54.5788V54.5814V54.584V54.5866V54.5892V54.5918V54.5944V54.5971V54.5997V54.6023V54.6049V54.6075V54.6101V54.6127V54.6153V54.6179V54.6206V54.6232V54.6258V54.6284V54.631V54.6336V54.6363V54.6389V54.6415V54.6441V54.6468V54.6494V54.652V54.6546V54.6573V54.6599V54.6625V54.6652V54.6678V54.6704V54.6731V54.6757V54.6784V54.681V54.6836V54.6863V54.6889V54.6916V54.6942V54.6969V54.6995V54.7022V54.7048V54.7075V54.7101V54.7128V54.7154V54.7181V54.7208V54.7234V54.7261V54.7287V54.7314V54.7341V54.7367V54.7394V54.7421V54.7447V54.7474V54.7501V54.7528V54.7554V54.7581V54.7608V54.7635V54.7662V54.7688V54.7715V54.7742V54.7769V54.7796V54.7823V54.785V54.7876V54.7903V54.793V54.7957V54.7984V54.8011V54.8038V54.8065V54.8092V54.8119V54.8146V54.8173V54.8201V54.8228V54.8255V54.8282V54.8309V54.8336V54.8363V54.8391V54.8418V54.8445V54.8472V54.8499V54.8527V54.8554V54.8581V54.8609V54.8636V54.8663V54.8691V54.8718V54.8745V54.8773V54.88V54.8827V54.8855V54.8882V54.891V54.8937V54.8965V54.8992V54.902V54.9047V54.9075V54.9103V54.913V54.9158V54.9185V54.9213V54.9241V54.9268V54.9296V54.9324V54.9352V54.9379V54.9407V54.9435V54.9463V54.949V54.9518V54.9546V54.9574V54.9602V54.963V54.9658V54.9686V54.9713V54.9741V54.9769V54.9797V54.9825V54.9853V54.9882V54.991V54.9938V54.9966V54.9994V55.0022V55.005V55.0078V55.0106V55.0135V55.0163V55.0191V55.0219V55.0248V55.0276V55.0304V55.0333V55.0361V55.0389V55.0418V55.0446V55.0475V55.0503V55.0531V55.056V55.0588V55.0617V55.0645V55.0674V55.0703V55.0731V55.076V55.0788V55.0817V55.0846V55.0874V55.0903V55.0932V55.0961V55.0989V55.1018V55.1047V55.1076V55.1105V55.1133V55.1162V55.1191V55.122V55.1249V55.1278V55.1307V55.1336V55.1365V55.1394V55.1423V55.1452V55.1481V55.151V55.1539V55.1569V55.1598V55.1627V55.1656V55.1685V55.1715V55.1744V55.1773V55.1803V55.1832V55.1861V55.1891V55.192V55.1949V55.1979V55.2008V55.2038V55.2067V55.2097V55.2126V55.2156V55.2186V55.2215V55.2245V55.2274V55.2304V55.2334V55.2364V55.2393V55.2423V55.2453V55.2483V55.2512V55.2542V55.2572V55.2602V55.2632V55.2662V55.2692V55.2722V55.2752V55.2782V55.2812V55.2842V55.2872V55.2902V55.2932V55.2963V55.2993V55.3023V55.3053V55.3083V55.3114V55.3144V55.3174V55.3205V55.3235V55.3265V55.3296V55.3326V55.3357V55.3387V55.3418V55.3448V55.3479V55.3509V55.354V55.3571V55.3601V55.3632V55.3663V55.3693V55.3724V55.3755V55.3786V55.3816V55.3847V55.3878V55.3909V55.394V55.3971V55.4002V55.4033V55.4064V55.4095V55.4126V55.4157V55.4188V55.4219V55.425V55.4281V55.4313V55.4344V55.4375V55.4406V55.4438V55.4469V55.45V55.4532V55.4563V55.4595V55.4626V55.4657V55.4689V55.4721V55.4752V55.4784V55.4815V55.4847V55.4879V55.491V55.4942V55.4974V55.5005V57.5774L49.8685 56.5402C50.2896 56.2974 50.7046 56.0588 51.1148 55.823C52.4774 55.0396 53.786 54.2872 55.0833 53.5178C55.3982 53.3322 55.6108 53.0611 55.7371 52.8503C55.8609 52.6437 56.01 52.3148 56.0145 51.9264C56.0344 50.3407 56.033 48.7523 56.0315 47.1207C56.0311 46.6878 56.0307 46.2519 56.0307 45.8123Z" fill="#F2BD14" stroke="#17191E" stroke-width="2.4"/>
<path d="M22.0501 43.6822L23.8388 44.6892C24.3534 44.9789 24.8269 45.2558 25.2769 45.519C26.2425 46.0837 27.1 46.5852 28.0246 47.0148L28.0253 47.0151C28.7533 47.3539 29.3336 47.834 29.6801 48.5293C30.0105 49.1922 30.0529 49.9049 30.0169 50.5554L30.0169 50.5559C29.9572 51.6281 29.9695 52.6817 29.983 53.842C29.9891 54.3699 29.9956 54.92 29.9956 55.5039V57.5548L28.2077 56.5501C27.9791 56.4216 27.7587 56.2984 27.5446 56.1787C26.9751 55.8604 26.45 55.5669 25.9346 55.266M22.0501 43.6822L22.0736 51.8764C22.0844 52.3763 22.3314 52.7682 22.4861 52.9739C22.6638 53.2102 22.8931 53.4284 23.1369 53.587L23.1392 53.5884C23.9608 54.1201 24.808 54.6119 25.6251 55.0862C25.7288 55.1464 25.832 55.2063 25.9346 55.266M22.0501 43.6822V45.7349M22.0501 43.6822V45.7349M25.9346 55.266C25.9343 55.2658 25.9341 55.2656 25.9338 55.2655L26.5388 54.2292L25.9355 55.2665C25.9352 55.2663 25.9349 55.2661 25.9346 55.266ZM22.0501 45.7349C22.0501 46.2605 22.0489 46.7758 22.0478 47.2829M22.0501 45.7349L22.0478 47.2829M22.0478 47.2829C22.0442 48.868 22.0408 50.3744 22.0736 51.8756L22.0478 47.2829Z" fill="#F2BD14" stroke="#17191E" stroke-width="2.4"/>
</g>
<defs>
<filter id="filter0_d_17031_3800" x="0.600098" y="0.599854" width="76.7998" height="84.8" filterUnits="userSpaceOnUse" color-interpolation-filters="sRGB">
<feFlood flood-opacity="0" result="BackgroundImageFix"/>
<feColorMatrix in="SourceAlpha" type="matrix" values="0 0 0 0 0 0 0 0 0 0 0 0 0 0 0 0 0 0 127 0" result="hardAlpha"/>
<feOffset/>
<feGaussianBlur stdDeviation="5"/>
<feComposite in2="hardAlpha" operator="out"/>
<feColorMatrix type="matrix" values="0 0 0 0 0 0 0 0 0 0 0 0 0 0 0 0 0 0 1 0"/>
<feBlend mode="normal" in2="BackgroundImageFix" result="effect1_dropShadow_17031_3800"/>
<feBlend mode="normal" in="SourceGraphic" in2="effect1_dropShadow_17031_3800" result="shape"/>
</filter>
</defs>
</svg>
