<svg xmlns="http://www.w3.org/2000/svg" width="1em" height="1em" viewBox="0 0 20 20" fill="current">
  <path fill-rule="evenodd" clip-rule="evenodd" d="M19.3386 14.6022C19.3386 9.32823 17.0366 5.05339 17.0366 5.05339C14.7346 3.2845 12.5445 3.33363 12.5445 3.33363L12.3207 3.59569C15.0383 4.44738 16.3012 5.67578 16.3012 5.67578C12.5038 3.54342 8.04313 3.54304 4.35956 5.2008C3.76807 5.47924 3.41637 5.67578 3.41637 5.67578C3.41637 5.67578 4.74323 4.38187 7.62074 3.53018L7.46088 3.33363C7.46088 3.33363 5.27077 3.2845 2.96876 5.05339C2.96876 5.05339 0.666748 9.32823 0.666748 14.6022C0.666748 14.6022 2.00959 16.9771 5.54254 17.0917C5.54254 17.0917 6.13403 16.3547 6.61361 15.7323C4.58337 15.1099 3.81603 13.7996 3.81603 13.7996C3.99425 13.9274 4.26011 14.0839 4.39256 14.1619L4.39265 14.1619C4.43493 14.1868 4.4636 14.2037 4.47146 14.2091C7.16976 15.7572 11.0026 16.2645 14.4469 14.7823C15.0064 14.5694 15.6298 14.2582 16.2853 13.816C16.2853 13.816 15.486 15.159 13.3918 15.765C13.8713 16.3874 14.4469 17.0917 14.4469 17.0917C17.9798 16.9771 19.3386 14.6022 19.3386 14.6022ZM14.4249 11.1953C14.4249 12.2755 13.7746 13.1608 12.9508 13.1608C12.1415 13.1608 11.4767 12.2755 11.4767 11.1953C11.4767 10.1152 12.1271 9.22987 12.9508 9.22987C13.7746 9.22987 14.4249 10.1152 14.4249 11.1953ZM5.58036 11.1953C5.58036 10.1152 6.23064 9.22987 7.05434 9.22987C7.87803 9.22987 8.54277 10.1152 8.52832 11.1953C8.52832 12.2755 7.87803 13.1608 7.05434 13.1608C6.2451 13.1608 5.58036 12.2755 5.58036 11.1953Z" fill="current"/>
</svg>