<svg width="402" height="1em" viewBox="0 0 402 33" fill="none" xmlns="http://www.w3.org/2000/svg">
<path d="M11.8195 0.599999C19.0495 0.599999 25.0195 5 25.0195 12.8C25.0195 20.6 19.0495 25 11.8195 25H4.01953H1.52953C1.14953 25 0.839534 24.69 0.839534 24.31V1.29C0.839534 0.909998 1.14953 0.599999 1.52953 0.599999H6.40953H11.8195ZM11.4195 20.04C15.6895 20.04 18.4795 17.25 18.4795 12.8C18.4795 8.35 15.6895 5.56 11.4195 5.56H7.09953V20.04H11.4195ZM40.7514 6.36C41.2814 6.36 41.5114 6.55 41.5114 7.05V11.94C41.5114 12.38 41.2614 12.52 40.8514 12.61C38.8414 13.01 35.8314 13.89 35.8314 17.94V24.31C35.8314 24.74 35.5714 25 35.1414 25H30.5514C30.1214 25 29.8614 24.74 29.8614 24.31V7.39C29.8614 6.96 30.1214 6.71 30.5514 6.71H35.1414C35.5714 6.71 35.8314 6.96 35.8314 7.39V10.31C36.9714 7.69 39.2914 6.36 40.7514 6.36ZM62.7514 20.27C63.2714 20.51 63.3314 20.86 63.1014 21.31C61.8414 23.79 58.5714 25.49 54.6714 25.49C49.1214 25.49 44.6914 21.93 44.6914 15.85C44.6914 9.77 49.1814 6.22 54.7314 6.22C59.8814 6.22 64.2614 9.17 64.2614 16.63H50.4914C50.8414 19.55 52.8614 20.87 54.8714 20.87C56.6014 20.87 57.7614 20.28 58.5014 19.06C58.7914 18.62 59.0614 18.47 59.5414 18.71L62.7514 20.27ZM54.6614 10.37C52.8914 10.37 51.3814 11.47 50.7414 13.48H58.2014C57.7114 11.11 56.1714 10.37 54.6614 10.37ZM74.9217 11.71C74.9217 14.35 84.8117 13 84.8117 19.53C84.8117 23.6 80.9817 25.49 76.3417 25.49C73.4417 25.49 70.6117 24.76 68.8317 23.63C68.3817 23.35 68.2617 23.03 68.4617 22.61L69.6317 20.06C69.8617 19.54 70.2717 19.44 70.6817 19.65C72.3317 20.51 73.8017 21.23 75.9317 21.23C77.4117 21.23 78.4617 20.86 78.4617 19.98C78.4617 17.37 68.8617 18.63 68.8617 12.19C68.8617 8.48 72.0317 6.22 76.9017 6.22C79.6117 6.22 81.9917 6.93 83.5917 7.87C84.0117 8.12 84.1717 8.42 83.9617 8.89L82.8617 11.27C82.6217 11.82 82.2417 11.85 81.8617 11.64C80.9317 11.11 79.3717 10.34 77.4017 10.34C75.8317 10.34 74.9217 10.87 74.9217 11.71ZM95.467 11.71C95.467 14.35 105.357 13 105.357 19.53C105.357 23.6 101.527 25.49 96.887 25.49C93.987 25.49 91.157 24.76 89.377 23.63C88.927 23.35 88.807 23.03 89.007 22.61L90.177 20.06C90.407 19.54 90.817 19.44 91.227 19.65C92.877 20.51 94.347 21.23 96.477 21.23C97.957 21.23 99.007 20.86 99.007 19.98C99.007 17.37 89.407 18.63 89.407 12.19C89.407 8.48 92.577 6.22 97.447 6.22C100.157 6.22 102.537 6.93 104.137 7.87C104.557 8.12 104.717 8.42 104.507 8.89L103.407 11.27C103.167 11.82 102.787 11.85 102.407 11.64C101.477 11.11 99.917 10.34 97.947 10.34C96.377 10.34 95.467 10.87 95.467 11.71ZM141.654 0.599999C142.024 0.599999 142.334 0.909998 142.334 1.29V14.6C142.334 22 137.184 25.4 130.464 25.4C123.744 25.4 118.604 22 118.604 14.6V1.29C118.604 0.909998 118.914 0.599999 119.284 0.599999H124.174C124.544 0.599999 124.854 0.909998 124.854 1.29V13.28C124.854 17.58 126.514 20.26 130.464 20.26C134.424 20.26 136.084 17.58 136.084 13.28V1.29C136.084 0.909998 136.394 0.599999 136.764 0.599999H141.654ZM158.659 6.23C163.779 6.23 167.489 10.16 167.489 15.86C167.489 21.56 163.779 25.49 158.659 25.49C156.319 25.49 154.609 24.57 153.429 22.91V31.62C153.429 32.05 153.179 32.31 152.749 32.31H148.149C147.719 32.31 147.459 32.05 147.459 31.62V7.4C147.459 6.97 147.719 6.71 148.149 6.71H152.749C153.179 6.71 153.429 6.97 153.429 7.4V8.81C154.609 7.15 156.319 6.23 158.659 6.23ZM157.219 20.62C159.439 20.62 161.319 18.93 161.319 15.86C161.319 12.79 159.439 11.1 157.219 11.1C154.889 11.1 153.119 12.9 153.119 15.86C153.119 18.82 154.889 20.62 157.219 20.62ZM203.717 0.599999C204.277 0.599999 204.637 1.01 204.317 1.51L194.997 16.9V24.31C194.997 24.69 194.687 25 194.307 25H189.427C189.057 25 188.737 24.69 188.737 24.31V16.98L179.327 1.51C179.017 1.01 179.347 0.599999 179.907 0.599999H185.287C185.717 0.599999 185.957 0.839999 186.157 1.2L192.087 11.61L197.917 1.2C198.087 0.86 198.377 0.599999 198.807 0.599999H203.717ZM214.363 6.22C219.913 6.22 224.633 9.77 224.633 15.85C224.633 21.93 219.913 25.49 214.363 25.49C208.813 25.49 204.093 21.93 204.093 15.85C204.093 9.77 208.813 6.22 214.363 6.22ZM214.363 20.61C216.583 20.61 218.463 18.93 218.463 15.85C218.463 12.78 216.583 11.09 214.363 11.09C212.143 11.09 210.263 12.78 210.263 15.85C210.263 18.93 212.143 20.61 214.363 20.61ZM247.45 6.71C247.88 6.71 248.14 6.96 248.14 7.39V24.31C248.14 24.74 247.88 25 247.45 25H242.86C242.43 25 242.17 24.74 242.17 24.31V22.2C240.89 24.13 238.71 25.4 235.7 25.4C231.17 25.4 229.25 22.74 229.25 18.56V7.4C229.25 6.97 229.51 6.71 229.94 6.71H234.54C234.97 6.71 235.22 6.97 235.22 7.4V16.48C235.22 19.38 236.28 20.44 238.23 20.44C240.5 20.44 242.17 18.79 242.17 15.86V7.39C242.17 6.96 242.43 6.71 242.86 6.71H247.45ZM264.172 6.36C264.702 6.36 264.932 6.55 264.932 7.05V11.94C264.932 12.38 264.682 12.52 264.272 12.61C262.262 13.01 259.252 13.89 259.252 17.94V24.31C259.252 24.74 258.992 25 258.562 25H253.972C253.542 25 253.282 24.74 253.282 24.31V7.39C253.282 6.96 253.542 6.71 253.972 6.71H258.562C258.992 6.71 259.252 6.96 259.252 7.39V10.31C260.392 7.69 262.712 6.36 264.172 6.36ZM302.534 24.09C302.764 24.65 302.514 25 301.954 25H296.644C296.224 25 295.934 24.81 295.774 24.4L294.094 20.24H284.284L282.534 24.4C282.374 24.79 282.074 25 281.644 25H276.804C276.244 25 275.964 24.65 276.204 24.09L286.624 0.949998C286.774 0.569999 287.084 0.369999 287.514 0.369999H291.544C291.964 0.369999 292.274 0.569999 292.434 0.949998L302.534 24.09ZM286.064 16H292.384L289.284 8.34L286.064 16ZM323.35 6.71C324.07 6.71 324.53 7.37 324.19 8.05L315.83 24.81C315.67 25.14 315.45 25.23 315.15 25.23H312.37C312.07 25.23 311.85 25.14 311.69 24.81L303.29 8.05C302.97 7.4 303.38 6.71 304.15 6.71H309.15C309.46 6.71 309.69 6.9 309.79 7.15L313.97 16.78L318.04 7.15C318.14 6.88 318.39 6.71 318.7 6.71H323.35ZM344.616 23.57C344.816 24.15 344.576 24.47 344.136 24.6L340.816 25.53C340.486 25.63 340.196 25.59 339.946 25.35C339.406 24.85 338.786 23.96 338.386 22.96C337.136 24.46 335.236 25.49 332.766 25.49C328.856 25.49 326.696 22.9 326.696 20.01C326.696 16 330.646 13 337.956 14.29V14.06C337.956 11.66 336.986 10.92 334.626 10.92C332.966 10.92 331.686 11.28 330.216 11.86C329.776 12.02 329.396 11.9 329.186 11.46L327.996 8.89C327.746 8.36 327.986 8.04 328.366 7.87C330.346 6.87 333.096 6.22 335.826 6.22C341.556 6.22 343.756 9.03 343.756 13.67V18.74C343.756 21.01 344.086 22.02 344.616 23.57ZM334.566 21.33C336.436 21.33 337.956 19.84 337.956 17.99V17.51C333.786 16.56 332.266 17.81 332.266 19.37C332.266 20.65 333.316 21.33 334.566 21.33ZM363.739 22.85C363.939 23.29 363.829 23.64 363.429 23.89C361.819 24.85 359.999 25.49 357.609 25.49C353.319 25.49 350.939 22.89 350.939 18.69V11.49H348.689C348.209 11.49 347.909 11.2 347.909 10.72V7.48C347.909 7 348.209 6.71 348.689 6.71H350.939V3.97C350.939 3.49 351.239 3.25 351.709 3.11L356.009 1.85C356.609 1.67 356.909 1.91 356.909 2.4V6.71H362.119C362.599 6.71 362.899 7 362.899 7.48V10.72C362.899 11.2 362.599 11.49 362.119 11.49H356.909V17.42C356.909 19.47 357.389 20.7 359.159 20.7C360.039 20.7 360.749 20.4 361.499 19.98C361.959 19.73 362.339 19.83 362.559 20.31L363.739 22.85ZM385.277 23.57C385.477 24.15 385.237 24.47 384.797 24.6L381.477 25.53C381.147 25.63 380.857 25.59 380.607 25.35C380.067 24.85 379.447 23.96 379.047 22.96C377.797 24.46 375.897 25.49 373.427 25.49C369.517 25.49 367.357 22.9 367.357 20.01C367.357 16 371.307 13 378.617 14.29V14.06C378.617 11.66 377.647 10.92 375.287 10.92C373.627 10.92 372.347 11.28 370.877 11.86C370.437 12.02 370.057 11.9 369.847 11.46L368.657 8.89C368.407 8.36 368.647 8.04 369.027 7.87C371.007 6.87 373.757 6.22 376.487 6.22C382.217 6.22 384.417 9.03 384.417 13.67V18.74C384.417 21.01 384.747 22.02 385.277 23.57ZM375.227 21.33C377.097 21.33 378.617 19.84 378.617 17.99V17.51C374.447 16.56 372.927 17.81 372.927 19.37C372.927 20.65 373.977 21.33 375.227 21.33ZM400.45 6.36C400.98 6.36 401.21 6.55 401.21 7.05V11.94C401.21 12.38 400.96 12.52 400.55 12.61C398.54 13.01 395.53 13.89 395.53 17.94V24.31C395.53 24.74 395.27 25 394.84 25H390.25C389.82 25 389.56 24.74 389.56 24.31V7.39C389.56 6.96 389.82 6.71 390.25 6.71H394.84C395.27 6.71 395.53 6.96 395.53 7.39V10.31C396.67 7.69 398.99 6.36 400.45 6.36Z" fill="white"/>
</svg>
