<svg width="46" height="10" viewBox="0 0 46 10" fill="none" xmlns="http://www.w3.org/2000/svg">
<g opacity="0.5">
<path d="M28.3047 8.32842V3.329C28.3047 2.41105 27.5671 1.66669 26.6574 1.66669C26.3115 1.66669 25.9904 1.77455 25.7257 1.95833C25.245 1.76113 24.7198 1.65234 24.1688 1.65234C21.8848 1.65234 20.033 3.52064 20.033 5.82593C20.033 8.13122 21.8844 9.99953 24.1688 9.99953C24.7175 9.99953 25.2413 9.89121 25.7207 9.69539C25.9868 9.88148 26.3092 9.99073 26.6574 9.99073C27.5671 9.99073 28.3047 9.24637 28.3047 8.32842ZM24.1734 6.65778C23.7156 6.65778 23.345 6.28329 23.345 5.82177C23.345 5.36025 23.7161 4.98575 24.1734 4.98575C24.6308 4.98575 25.0019 5.36025 25.0019 5.82177C25.0019 6.28329 24.6308 6.65778 24.1734 6.65778Z" fill="#A5A6AB"/>
<path d="M14.1899 8.33748V8.26111C14.4615 8.31758 14.7432 8.34767 15.0312 8.34767C17.3152 8.34767 19.1671 6.47937 19.1671 4.17408C19.1671 1.86925 17.3157 0.000488281 15.0312 0.000488281C14.4835 0.000488281 13.9606 0.108347 13.4821 0.303231C13.2156 0.116216 12.8918 0.00604297 12.5427 0.00604297C11.633 0.00604297 10.8954 0.750401 10.8954 1.66835V4.17223C10.8954 4.17223 10.8954 4.17315 10.8954 4.17362C10.8954 4.17408 10.8954 4.17454 10.8954 4.175V8.33656C10.8954 9.25451 11.633 9.99887 12.5427 9.99887C13.4523 9.99887 14.1899 9.25543 14.1899 8.33748ZM15.0271 5.00593C14.5693 5.00593 14.1987 4.63143 14.1987 4.16991C14.1987 3.70839 14.5698 3.3339 15.0271 3.3339C15.4845 3.3339 15.8556 3.70839 15.8556 4.16991C15.8556 4.63143 15.4845 5.00593 15.0271 5.00593Z" fill="#A5A6AB"/>
<path d="M37.7551 1.66694V8.31848C37.7551 8.87305 38.0239 9.3642 38.4373 9.6674C38.4423 9.6711 38.4473 9.67481 38.4524 9.67805C38.4652 9.68731 38.4781 9.69656 38.4914 9.70536C39.1304 10.1423 40.0065 10.0757 40.5726 9.50446L41.8781 8.18702L43.1773 9.49798C43.8222 10.1488 44.8677 10.1488 45.5126 9.49798C46.1576 8.84712 46.1576 7.79216 45.5126 7.1413L44.2135 5.83034L45.519 4.5129C46.1603 3.86576 46.1603 2.81634 45.519 2.16873L45.5062 2.15577C44.8649 1.50862 43.825 1.50862 43.1832 2.15577L41.0579 4.30043V1.66647C41.0579 0.74621 40.3185 0 39.4065 0C38.4946 0 37.7551 0.74621 37.7551 1.66647V1.66694Z" fill="#A5A6AB"/>
<path d="M32.6172 8.3331V5.82182C32.6172 5.35984 32.9966 4.9858 33.4544 4.9858C33.6645 4.9858 33.8576 5.06357 34.0035 5.19411C34.3902 5.53713 34.9292 5.69313 35.4687 5.56629C36.3568 5.35752 36.9095 4.46179 36.7026 3.5656C36.6104 3.16565 36.3825 2.83374 36.0797 2.60691C35.365 2.01161 34.4489 1.65332 33.4498 1.65332C32.9003 1.65332 32.3764 1.76164 31.8966 1.95791C31.6314 1.77506 31.3108 1.66767 30.9654 1.66767C30.0534 1.66767 29.314 2.41388 29.314 3.33414V8.33357C29.314 9.25383 30.0534 10 30.9654 10C31.8773 10 32.6168 9.25383 32.6168 8.33357L32.6172 8.3331Z" fill="#A5A6AB"/>
<path d="M9.86305 5.64452C9.86947 5.59268 9.87268 5.54083 9.87451 5.48898C9.87589 5.4663 9.87635 5.44316 9.87635 5.42001V5.41353C9.87635 4.72518 9.32313 4.16692 8.641 4.16692H5.77259C5.09047 4.16692 4.53725 4.72518 4.53725 5.41353V5.42001C4.53725 5.9718 4.8923 6.43934 5.38451 6.60367C5.22212 6.64811 5.04964 6.66848 4.8712 6.66014C4.04366 6.61987 3.36429 5.95004 3.3074 5.11588C3.24089 4.14331 4.00283 3.33368 4.95239 3.33368C5.23635 3.33368 5.50332 3.40589 5.73635 3.53366C6.52766 3.98592 7.53272 3.70632 7.98181 2.9078C8.43091 2.10928 8.15751 1.08764 7.36621 0.634455C6.63959 0.224317 5.80012 -0.00713833 4.90606 0.00119404C2.22849 0.0257282 0.0366968 2.22733 0.000457529 4.92886C-0.0366992 7.72021 2.19408 9.99494 4.95194 9.99494C7.46942 9.99494 9.5479 8.09887 9.86259 5.64499L9.86305 5.64452Z" fill="#A5A6AB"/>
</g>
</svg>
