<svg xmlns="http://www.w3.org/2000/svg" width="20" height="20" viewBox="0 0 20 20" fill="current">
  <path fill-rule="evenodd" clip-rule="evenodd" d="M12.5125 4.26918C7.83478 3.22666 2.58666 5.13735 0 10.0012C0.805846 11.5165 1.87 12.7452 3.09475 13.6872L6.06513 10.7167C6.02235 10.4847 6 10.2457 6 10.0014C6 7.81511 7.79086 6.04275 10 6.04275C10.2324 6.04275 10.4602 6.06236 10.6817 6.10001L12.5125 4.26918ZM8.62978 11.7848L11.7847 8.62972C12.0765 9.00918 12.25 9.48433 12.25 10C12.25 11.2426 11.2426 12.25 10 12.25C9.48436 12.25 9.00923 12.0765 8.62978 11.7848ZM7.40258 13.0121C8.10144 13.6032 9.0086 13.9601 10 13.9601C12.2091 13.9601 14 12.1878 14 10.0014C14 9.00545 13.6283 8.09537 13.0148 7.39962L15.1854 5.22893C17.1329 6.22162 18.836 7.81239 20 10.0012C17.0142 15.6156 10.4823 17.2951 5.3749 15.0398L7.40258 13.0121Z" fill="current"/>
  <path fill-rule="evenodd" clip-rule="evenodd" d="M18.7901 3.20821L3.2045 18.7943L1.79027 17.3801L17.3759 1.79402L18.7901 3.20821Z" fill="current"/>
</svg>