<svg width="22" height="22" viewBox="0 0 22 22" fill="none" xmlns="http://www.w3.org/2000/svg">
<path d="M6.5 8L8.98315 6.34457C9.31978 6.12014 9.58044 5.7989 9.7307 5.42325L11.0423 2.1443C11.2782 1.55456 11.997 1.33131 12.5255 1.68364L12.8283 1.88556C13.8398 2.5599 14.3444 3.778 14.106 4.97006L13.5 8H18.9384C20.2396 8 21.1943 9.22278 20.8787 10.4851L18.8787 18.4851C18.6561 19.3754 17.8562 20 16.9384 20H6.5V8Z" fill="white"/>
<path d="M1.09025 9.08305C1.04167 8.50003 1.50176 8 2.0868 8H5V20H2.92013C2.40004 20 1.96678 19.6013 1.92359 19.083L1.09025 9.08305Z" fill="white"/>
</svg>
