<svg width="18" height="18" viewBox="0 0 18 18" fill="none" xmlns="http://www.w3.org/2000/svg">
<path fill-rule="evenodd" clip-rule="evenodd" d="M2.5293 1.01245H15.4668V3.82498H17.6602V5.28749C17.6602 6.49893 16.6782 7.48102 15.4668 7.48123V8.21244C15.4668 11.2819 13.329 13.852 10.4611 14.515V15.525H14.7357V16.9875L3.26074 16.9875V15.525H7.53613V14.5153C4.66767 13.8527 2.5293 11.2823 2.5293 8.21245V1.01245ZM0.334961 3.82498H2.52871L2.52871 7.48123C1.31714 7.48123 0.334961 6.49906 0.334961 5.28749V3.82498Z" fill="url(#paint0_linear_18124_6064)"/>
<path d="M5.97919 5.712C6.01119 4.856 6.29119 4.196 6.81919 3.732C7.34719 3.268 8.06319 3.036 8.96719 3.036C9.56719 3.036 10.0792 3.14 10.5032 3.348C10.9352 3.556 11.2592 3.84 11.4752 4.2C11.6992 4.56 11.8112 4.964 11.8112 5.412C11.8112 5.94 11.6792 6.372 11.4152 6.708C11.1512 7.036 10.8432 7.26 10.4912 7.38V7.428C10.9472 7.58 11.3072 7.832 11.5712 8.184C11.8352 8.536 11.9672 8.988 11.9672 9.54C11.9672 10.036 11.8512 10.476 11.6192 10.86C11.3952 11.236 11.0632 11.532 10.6232 11.748C10.1912 11.964 9.67519 12.072 9.07519 12.072C8.11519 12.072 7.34719 11.836 6.77119 11.364C6.20319 10.892 5.90319 10.18 5.87119 9.228H7.86319C7.87119 9.58 7.97119 9.86 8.16319 10.068C8.35519 10.268 8.63519 10.368 9.00319 10.368C9.31519 10.368 9.55519 10.28 9.72319 10.104C9.89919 9.92 9.98719 9.68 9.98719 9.384C9.98719 9 9.86319 8.724 9.61519 8.556C9.37519 8.38 8.98719 8.292 8.45119 8.292H8.06719V6.624H8.45119C8.85919 6.624 9.18719 6.556 9.43519 6.42C9.69119 6.276 9.81919 6.024 9.81919 5.664C9.81919 5.376 9.73919 5.152 9.57919 4.992C9.41919 4.832 9.19919 4.752 8.91919 4.752C8.61519 4.752 8.38719 4.844 8.23519 5.028C8.09119 5.212 8.00719 5.44 7.98319 5.712H5.97919Z" fill="#6D5131"/>
<defs>
<linearGradient id="paint0_linear_18124_6064" x1="8.99737" y1="0.899896" x2="8.99737" y2="17.0999" gradientUnits="userSpaceOnUse">
<stop stop-color="#FFFFDA"/>
<stop offset="0.503402" stop-color="#FFE7B6"/>
<stop offset="1" stop-color="#CE9658"/>
</linearGradient>
</defs>
</svg>
