<svg width="18" height="18" viewBox="0 0 18 18" fill="none" xmlns="http://www.w3.org/2000/svg">
<path fill-rule="evenodd" clip-rule="evenodd" d="M2.5293 1.01245H15.4668V3.82498H17.6602V5.28749C17.6602 6.49893 16.6782 7.48102 15.4668 7.48123V8.21244C15.4668 11.2819 13.329 13.852 10.4611 14.515V15.525H14.7357V16.9875L3.26074 16.9875V15.525H7.53613V14.5153C4.66767 13.8527 2.5293 11.2823 2.5293 8.21245V1.01245ZM0.334961 3.82498H2.52871L2.52871 7.48123C1.31714 7.48123 0.334961 6.49906 0.334961 5.28749V3.82498Z" fill="url(#paint0_linear_18124_6111)"/>
<path d="M6.04027 10.356C6.31227 10.14 6.43627 10.04 6.41227 10.056C7.19627 9.408 7.81227 8.876 8.26027 8.46C8.71627 8.044 9.10027 7.608 9.41227 7.152C9.72427 6.696 9.88027 6.252 9.88027 5.82C9.88027 5.492 9.80427 5.236 9.65227 5.052C9.50027 4.868 9.27227 4.776 8.96827 4.776C8.66427 4.776 8.42427 4.892 8.24827 5.124C8.08027 5.348 7.99627 5.668 7.99627 6.084H6.01627C6.03227 5.404 6.17627 4.836 6.44827 4.38C6.72827 3.924 7.09227 3.588 7.54027 3.372C7.99627 3.156 8.50027 3.048 9.05227 3.048C10.0043 3.048 10.7203 3.292 11.2003 3.78C11.6883 4.268 11.9323 4.904 11.9323 5.688C11.9323 6.544 11.6403 7.34 11.0563 8.076C10.4723 8.804 9.72827 9.516 8.82427 10.212H12.0643V11.88H6.04027V10.356Z" fill="#6D5131"/>
<defs>
<linearGradient id="paint0_linear_18124_6111" x1="8.99737" y1="0.899896" x2="8.99737" y2="17.0999" gradientUnits="userSpaceOnUse">
<stop stop-color="#FFFFDA"/>
<stop offset="0.503402" stop-color="#FFE7B6"/>
<stop offset="1" stop-color="#CE9658"/>
</linearGradient>
</defs>
</svg>
