<svg width="20" height="20" viewBox="0 0 20 20" fill="none" xmlns="http://www.w3.org/2000/svg">
<path d="M13.0789 17.4301C13.0795 17.4294 13.0803 17.4288 13.081 17.4281L13.0819 17.4289C13.0801 17.4312 13.0781 17.4339 13.0761 17.4368C13.0768 17.4344 13.0778 17.4321 13.0789 17.4301ZM11.9681 16.4003L13.0809 17.5128L13.1094 17.5414L14.1819 18.6138L14.2843 18.7163V18.5714V16.9401C16.6071 15.503 18.1548 12.9322 18.1548 9.99986C18.1548 5.49585 14.5035 1.84463 9.99954 1.84463C9.67318 1.84463 9.35129 1.8638 9.03491 1.90108L8.91198 1.91557L8.99951 2.0031L10.3856 3.38917L10.4016 3.40519L10.4242 3.40662C13.875 3.62551 16.6062 6.49376 16.6062 9.99986C16.6062 12.954 14.6673 15.4554 11.9925 16.3006L11.8982 16.3304L11.9681 16.4003ZM13.1586 17.5187C13.1588 17.5185 13.1591 17.5184 13.1593 17.5182C13.1588 17.5187 13.1583 17.5191 13.1579 17.5194L13.1566 17.5202C13.1572 17.5198 13.1579 17.5193 13.1586 17.5187ZM10.5596 16.6043L10.5401 16.5848L10.5126 16.5869C10.3433 16.5999 10.1722 16.6065 9.99953 16.6065C6.35077 16.6065 3.39287 13.6486 3.39287 9.99986C3.39287 6.77466 5.70397 4.08911 8.76046 3.50919L8.87192 3.48804L8.79171 3.40782L6.29429 0.90994L6.19186 0.80749V0.952362L6.19186 2.78626C3.60629 4.15386 1.8443 6.87105 1.8443 9.99986C1.8443 14.5039 5.49552 18.1551 9.99954 18.1551C10.6125 18.1551 11.2098 18.0875 11.7842 17.9592L11.8907 17.9354L11.8135 17.8582L10.5596 16.6043Z" fill="white" stroke="white" stroke-width="0.12"/>
</svg>
