<svg xmlns="http://www.w3.org/2000/svg" width="20" height="20" viewBox="0 0 20 20" fill="current">
  <path fill-rule="evenodd" clip-rule="evenodd" d="M0 10.0012C4.2602 1.99047 15.7398 1.99047 20 10.0012C15.7398 18.012 4.2602 18.012 0 10.0012ZM14 10.0014C14 12.1878 12.2091 13.9601 10 13.9601C7.79086 13.9601 6 12.1878 6 10.0014C6 7.81511 7.79086 6.04275 10 6.04275C12.2091 6.04275 14 7.81511 14 10.0014ZM10 12.25C11.2426 12.25 12.25 11.2426 12.25 10C12.25 8.75736 11.2426 7.75 10 7.75C8.75736 7.75 7.75 8.75736 7.75 10C7.75 11.2426 8.75736 12.25 10 12.25Z" fill="current"/>
</svg>