<svg xmlns="http://www.w3.org/2000/svg" width="14" height="14" viewBox="0 0 14 14" fill="none">
  <path fill-rule="evenodd" clip-rule="evenodd" d="M8.23535 0L5.84606e-05 8.23529L1.71736 9.9526C2.3667 9.64249 3.16792 9.75634 3.70572 10.2942C4.24353 10.832 4.35738 11.6332 4.04728 12.2825L5.76476 14L14.0001 5.76471L12.2825 4.04718C11.6331 4.35748 10.8317 4.24369 10.2938 3.70578C9.75592 3.16788 9.64212 2.36648 9.95243 1.71708L8.23535 0ZM7.41204 4.11764L4.11792 7.41176L4.94145 8.23529L8.23557 4.94117L7.41204 4.11764ZM9.05853 5.76467L5.76441 9.05879L6.58794 9.88232L9.88206 6.5882L9.05853 5.76467Z" fill="#F2B8B0"/>
</svg>