<svg width="188" height="188" viewBox="0 0 188 188" fill="none" xmlns="http://www.w3.org/2000/svg">
<path d="M0 40C0 17.9086 17.9086 0 40 0H188V148C188 170.091 170.091 188 148 188H0V40Z" fill="white" fill-opacity="0.06"/>
<path d="M84.3334 107.74C83.1334 106.54 82.5334 105.07 82.5334 103.33C82.5334 101.59 83.1334 100.12 84.3334 98.92C85.5334 97.72 86.9734 97.12 88.6534 97.12C90.3934 97.12 91.8634 97.72 93.0634 98.92C94.2634 100.12 94.8634 101.59 94.8634 103.33C94.8634 105.07 94.2634 106.54 93.0634 107.74C91.8634 108.94 90.3934 109.54 88.6534 109.54C86.9734 109.54 85.5334 108.94 84.3334 107.74ZM74.1634 60.22C74.1034 54.7 75.9034 50.23 79.5634 46.81C83.2234 43.39 88.0834 41.68 94.1434 41.68C100.263 41.68 105.153 43.36 108.813 46.72C112.533 50.08 114.393 54.85 114.393 61.03C114.393 67.15 112.623 71.62 109.083 74.44C105.543 77.26 100.293 78.7 93.3334 78.76V89.74H83.6134V71.74H87.9334C93.5734 71.8 97.7434 71.08 100.443 69.58C103.203 68.02 104.583 64.99 104.583 60.49C104.583 57.31 103.653 54.82 101.793 53.02C99.9934 51.22 97.4734 50.32 94.2334 50.32C90.9934 50.32 88.4434 51.19 86.5834 52.93C84.7234 54.67 83.7934 57.1 83.7934 60.22H74.1634Z" fill="white" fill-opacity="0.7"/>
<path d="M40.6948 139.92V131.1H42.9748V139.92C42.9748 140.973 43.2482 141.767 43.7948 142.3C44.3548 142.833 45.1282 143.1 46.1148 143.1C47.1148 143.1 47.8882 142.833 48.4348 142.3C48.9948 141.767 49.2748 140.973 49.2748 139.92V131.1H51.5548V139.92C51.5548 141.6 51.0282 142.893 49.9748 143.8C48.9348 144.693 47.6348 145.14 46.0748 145.14C44.5282 145.14 43.2415 144.693 42.2148 143.8C41.2015 142.907 40.6948 141.613 40.6948 139.92ZM56.8034 133.98V135.72C57.5368 134.44 58.7101 133.8 60.3234 133.8C61.5634 133.8 62.5834 134.213 63.3834 135.04C64.1968 135.867 64.6034 137.02 64.6034 138.5V145H62.3434V138.84C62.3434 137.853 62.0968 137.1 61.6034 136.58C61.1101 136.047 60.4368 135.78 59.5834 135.78C58.7301 135.78 58.0501 136.047 57.5434 136.58C57.0501 137.1 56.8034 137.853 56.8034 138.84V145H54.5234V133.98H56.8034ZM72.1517 145.18C70.5517 145.18 69.2517 144.66 68.2517 143.62C67.2517 142.58 66.7517 141.207 66.7517 139.5C66.7517 137.78 67.2517 136.4 68.2517 135.36C69.2651 134.32 70.5651 133.8 72.1517 133.8C73.4851 133.8 74.5851 134.12 75.4517 134.76C76.3317 135.387 76.9251 136.287 77.2317 137.46H74.7717C74.3584 136.3 73.4851 135.72 72.1517 135.72C71.2184 135.72 70.4717 136.053 69.9117 136.72C69.3651 137.373 69.0917 138.293 69.0917 139.48C69.0917 140.667 69.3651 141.593 69.9117 142.26C70.4717 142.927 71.2184 143.26 72.1517 143.26C73.4717 143.26 74.3451 142.68 74.7717 141.52H77.2317C76.9117 142.64 76.3117 143.533 75.4317 144.2C74.5517 144.853 73.4584 145.18 72.1517 145.18ZM79.5039 145V130.2H81.7839V145H79.5039ZM92.0373 142.2C92.704 141.52 93.0373 140.613 93.0373 139.48C93.0373 138.347 92.704 137.447 92.0373 136.78C91.384 136.113 90.604 135.78 89.6973 135.78C88.7907 135.78 88.004 136.107 87.3373 136.76C86.684 137.413 86.3573 138.307 86.3573 139.44C86.3573 140.573 86.684 141.487 87.3373 142.18C88.004 142.86 88.7907 143.2 89.6973 143.2C90.604 143.2 91.384 142.867 92.0373 142.2ZM89.2173 145.18C87.7507 145.18 86.5173 144.647 85.5173 143.58C84.5173 142.5 84.0173 141.127 84.0173 139.46C84.0173 137.78 84.5107 136.42 85.4973 135.38C86.4973 134.327 87.7373 133.8 89.2173 133.8C90.084 133.8 90.844 134 91.4973 134.4C92.164 134.787 92.6773 135.3 93.0373 135.94V133.98H95.3373V145H93.0373V142.94C92.664 143.62 92.1507 144.167 91.4973 144.58C90.844 144.98 90.084 145.18 89.2173 145.18ZM100.932 131.06C100.932 131.473 100.792 131.82 100.512 132.1C100.232 132.38 99.8854 132.52 99.472 132.52C99.072 132.52 98.732 132.38 98.452 132.1C98.172 131.82 98.032 131.473 98.032 131.06C98.032 130.647 98.172 130.3 98.452 130.02C98.732 129.74 99.072 129.6 99.472 129.6C99.8854 129.6 100.232 129.74 100.512 130.02C100.792 130.3 100.932 130.647 100.932 131.06ZM98.332 145V133.98H100.612V145H98.332ZM105.885 133.98V135.72C106.619 134.44 107.792 133.8 109.405 133.8C110.259 133.8 111.019 134 111.685 134.4C112.352 134.8 112.859 135.38 113.205 136.14C113.592 135.407 114.125 134.833 114.805 134.42C115.499 134.007 116.279 133.8 117.145 133.8C118.412 133.8 119.452 134.213 120.265 135.04C121.079 135.853 121.485 137.007 121.485 138.5V145H119.205V138.84C119.205 137.853 118.959 137.1 118.465 136.58C117.972 136.047 117.299 135.78 116.445 135.78C115.592 135.78 114.919 136.047 114.425 136.58C113.932 137.1 113.685 137.853 113.685 138.84V145H111.425V138.84C111.425 137.853 111.179 137.1 110.685 136.58C110.192 136.047 109.519 135.78 108.665 135.78C107.812 135.78 107.132 136.047 106.625 136.58C106.132 137.1 105.885 137.853 105.885 138.84V145H103.605V133.98H105.885ZM129.027 145.18C127.427 145.18 126.127 144.66 125.127 143.62C124.127 142.58 123.627 141.2 123.627 139.48C123.627 137.76 124.133 136.387 125.147 135.36C126.16 134.32 127.467 133.8 129.067 133.8C130.68 133.8 131.987 134.3 132.987 135.3C133.987 136.287 134.487 137.58 134.487 139.18C134.487 139.567 134.46 139.927 134.407 140.26H125.967C126.02 141.18 126.327 141.913 126.887 142.46C127.46 142.993 128.173 143.26 129.027 143.26C130.267 143.26 131.14 142.747 131.647 141.72H134.107C133.773 142.733 133.167 143.567 132.287 144.22C131.407 144.86 130.32 145.18 129.027 145.18ZM132.107 138.7C132.093 137.793 131.793 137.073 131.207 136.54C130.62 135.993 129.907 135.72 129.067 135.72C128.227 135.72 127.52 135.993 126.947 136.54C126.387 137.073 126.067 137.793 125.987 138.7H132.107ZM143.99 142.2C144.657 141.52 144.99 140.613 144.99 139.48C144.99 138.347 144.657 137.447 143.99 136.78C143.337 136.113 142.557 135.78 141.65 135.78C140.744 135.78 139.957 136.107 139.29 136.76C138.637 137.413 138.31 138.307 138.31 139.44C138.31 140.573 138.637 141.487 139.29 142.18C139.957 142.86 140.744 143.2 141.65 143.2C142.557 143.2 143.337 142.867 143.99 142.2ZM141.17 145.18C139.704 145.18 138.47 144.647 137.47 143.58C136.47 142.5 135.97 141.127 135.97 139.46C135.97 137.78 136.464 136.42 137.45 135.38C138.45 134.327 139.69 133.8 141.17 133.8C142.037 133.8 142.797 134 143.45 134.4C144.117 134.787 144.63 135.3 144.99 135.94V130.2H147.29V145H144.99V142.94C144.617 143.62 144.104 144.167 143.45 144.58C142.797 144.98 142.037 145.18 141.17 145.18Z" fill="white" fill-opacity="0.7"/>
</svg>
