<svg width="70" height="67" viewBox="0 0 70 67" fill="none" xmlns="http://www.w3.org/2000/svg">
<g clip-path="url(#clip0_9233_634)">
<rect x="8.5" y="8.5" width="8" height="8" stroke="#6F7784"/>
<rect x="0.5" y="0.5" width="8" height="8" stroke="#6F7784"/>
<rect x="16.5" y="0.5" width="8" height="8" stroke="#6F7784"/>
<rect x="0.5" y="16.5" width="8" height="8" stroke="#6F7784"/>
<path d="M25 0.500243L35 0.500244" stroke="#6F7784"/>
<path d="M0.5 24.5L0.5 34.5" stroke="#6F7784"/>
</g>
<g clip-path="url(#clip1_9233_634)">
<rect width="8" height="8" transform="matrix(1 0 0 -1 8.5 58.5)" stroke="#6F7784"/>
<rect width="8" height="8" transform="matrix(1 0 0 -1 0.5 66.5)" stroke="#6F7784"/>
<rect width="8" height="8" transform="matrix(1 0 0 -1 16.5 66.5)" stroke="#6F7784"/>
<rect width="8" height="8" transform="matrix(1 0 0 -1 0.5 50.5)" stroke="#6F7784"/>
<path d="M25 66.4998L35 66.4998" stroke="#6F7784"/>
<path d="M0.5 42.5L0.5 32.5" stroke="#6F7784"/>
</g>
<g clip-path="url(#clip2_9233_634)">
<rect width="8" height="8" transform="matrix(-1 0 0 1 61.5 8.5)" stroke="#6F7784"/>
<rect width="8" height="8" transform="matrix(-1 0 0 1 69.5 0.5)" stroke="#6F7784"/>
<rect width="8" height="8" transform="matrix(-1 0 0 1 53.5 0.5)" stroke="#6F7784"/>
<rect width="8" height="8" transform="matrix(-1 0 0 1 69.5 16.5)" stroke="#6F7784"/>
<path d="M45 0.500243L35 0.500244" stroke="#6F7784"/>
<path d="M69.5 24.5V34.5" stroke="#6F7784"/>
</g>
<g clip-path="url(#clip3_9233_634)">
<rect x="61.5" y="58.5" width="8" height="8" transform="rotate(180 61.5 58.5)" stroke="#6F7784"/>
<rect x="69.5" y="66.5" width="8" height="8" transform="rotate(180 69.5 66.5)" stroke="#6F7784"/>
<rect x="53.5" y="66.5" width="8" height="8" transform="rotate(180 53.5 66.5)" stroke="#6F7784"/>
<rect x="69.5" y="50.5" width="8" height="8" transform="rotate(180 69.5 50.5)" stroke="#6F7784"/>
<path d="M45 66.4998L35 66.4998" stroke="#6F7784"/>
<path d="M69.5 42.5V32.5" stroke="#6F7784"/>
</g>
<defs>
<clipPath id="clip0_9233_634">
<rect width="35" height="34" fill="white"/>
</clipPath>
<clipPath id="clip1_9233_634">
<rect width="35" height="34" fill="white" transform="matrix(1 0 0 -1 0 67)"/>
</clipPath>
<clipPath id="clip2_9233_634">
<rect width="35" height="34" fill="white" transform="matrix(-1 0 0 1 70 0)"/>
</clipPath>
<clipPath id="clip3_9233_634">
<rect width="35" height="34" fill="white" transform="matrix(-1 0 0 -1 70 67)"/>
</clipPath>
</defs>
</svg>
